G04 #@! TF.GenerationSoftware,KiCad,Pcbnew,(5.1.2)-2*
G04 #@! TF.CreationDate,2019-10-08T18:44:44+02:00*
G04 #@! TF.ProjectId,BadUSB,42616455-5342-42e6-9b69-6361645f7063,rev?*
G04 #@! TF.SameCoordinates,Original*
G04 #@! TF.FileFunction,Soldermask,Bot*
G04 #@! TF.FilePolarity,Negative*
%FSLAX46Y46*%
G04 Gerber Fmt 4.6, Leading zero omitted, Abs format (unit mm)*
G04 Created by KiCad (PCBNEW (5.1.2)-2) date 2019-10-08 18:44:44*
%MOMM*%
%LPD*%
G04 APERTURE LIST*
%ADD10C,0.100000*%
G04 APERTURE END LIST*
D10*
G36*
X94901000Y-62316000D02*
G01*
X94199000Y-62316000D01*
X94199000Y-60464000D01*
X94901000Y-60464000D01*
X94901000Y-62316000D01*
X94901000Y-62316000D01*
G37*
G36*
X93901000Y-62316000D02*
G01*
X93199000Y-62316000D01*
X93199000Y-60464000D01*
X93901000Y-60464000D01*
X93901000Y-62316000D01*
X93901000Y-62316000D01*
G37*
G36*
X92901000Y-62316000D02*
G01*
X92199000Y-62316000D01*
X92199000Y-60464000D01*
X92901000Y-60464000D01*
X92901000Y-62316000D01*
X92901000Y-62316000D01*
G37*
G36*
X96369346Y-59995649D02*
G01*
X96389965Y-60001904D01*
X96408961Y-60012057D01*
X96425616Y-60025725D01*
X96439284Y-60042380D01*
X96449437Y-60061376D01*
X96455692Y-60081995D01*
X96458408Y-60109573D01*
X96458408Y-60568293D01*
X96455692Y-60595871D01*
X96449437Y-60616490D01*
X96439284Y-60635486D01*
X96425616Y-60652141D01*
X96408961Y-60665809D01*
X96389965Y-60675962D01*
X96369346Y-60682217D01*
X96341768Y-60684933D01*
X96025999Y-60684933D01*
X96001613Y-60687335D01*
X95978164Y-60694448D01*
X95956553Y-60705999D01*
X95937611Y-60721544D01*
X95922066Y-60740486D01*
X95910515Y-60762097D01*
X95903402Y-60785546D01*
X95901000Y-60809932D01*
X95901000Y-62316000D01*
X95199000Y-62316000D01*
X95199000Y-60464000D01*
X95591409Y-60464000D01*
X95615795Y-60461598D01*
X95639244Y-60454485D01*
X95660855Y-60442934D01*
X95679797Y-60427389D01*
X95695342Y-60408447D01*
X95706893Y-60386836D01*
X95714006Y-60363387D01*
X95716408Y-60339001D01*
X95716408Y-60109573D01*
X95719124Y-60081995D01*
X95725379Y-60061376D01*
X95735532Y-60042380D01*
X95749200Y-60025725D01*
X95765855Y-60012057D01*
X95784851Y-60001904D01*
X95805470Y-59995649D01*
X95833048Y-59992933D01*
X96341768Y-59992933D01*
X96369346Y-59995649D01*
X96369346Y-59995649D01*
G37*
G36*
X89460015Y-61016973D02*
G01*
X89563879Y-61048479D01*
X89591055Y-61063005D01*
X89659600Y-61099643D01*
X89743501Y-61168499D01*
X89812357Y-61252400D01*
X89848995Y-61320945D01*
X89863521Y-61348121D01*
X89895027Y-61451985D01*
X89905666Y-61560000D01*
X89895027Y-61668015D01*
X89863521Y-61771879D01*
X89863519Y-61771882D01*
X89812357Y-61867600D01*
X89743501Y-61951501D01*
X89659600Y-62020357D01*
X89591055Y-62056995D01*
X89563879Y-62071521D01*
X89460015Y-62103027D01*
X89379067Y-62111000D01*
X87800933Y-62111000D01*
X87719985Y-62103027D01*
X87616121Y-62071521D01*
X87588945Y-62056995D01*
X87520400Y-62020357D01*
X87436499Y-61951501D01*
X87367643Y-61867600D01*
X87316481Y-61771882D01*
X87316479Y-61771879D01*
X87284973Y-61668015D01*
X87274334Y-61560000D01*
X87284973Y-61451985D01*
X87316479Y-61348121D01*
X87331005Y-61320945D01*
X87367643Y-61252400D01*
X87436499Y-61168499D01*
X87520400Y-61099643D01*
X87588945Y-61063005D01*
X87616121Y-61048479D01*
X87719985Y-61016973D01*
X87800933Y-61009000D01*
X89379067Y-61009000D01*
X89460015Y-61016973D01*
X89460015Y-61016973D01*
G37*
G36*
X96369346Y-59025649D02*
G01*
X96389965Y-59031904D01*
X96408961Y-59042057D01*
X96425616Y-59055725D01*
X96439284Y-59072380D01*
X96449437Y-59091376D01*
X96455692Y-59111995D01*
X96458408Y-59139573D01*
X96458408Y-59598293D01*
X96455692Y-59625871D01*
X96449437Y-59646490D01*
X96439284Y-59665486D01*
X96425616Y-59682141D01*
X96408961Y-59695809D01*
X96389965Y-59705962D01*
X96369346Y-59712217D01*
X96341768Y-59714933D01*
X95833048Y-59714933D01*
X95805470Y-59712217D01*
X95784851Y-59705962D01*
X95765855Y-59695809D01*
X95749200Y-59682141D01*
X95735532Y-59665486D01*
X95725379Y-59646490D01*
X95719124Y-59625871D01*
X95716408Y-59598293D01*
X95716408Y-59139573D01*
X95719124Y-59111995D01*
X95725379Y-59091376D01*
X95735532Y-59072380D01*
X95749200Y-59055725D01*
X95765855Y-59042057D01*
X95784851Y-59031904D01*
X95805470Y-59025649D01*
X95833048Y-59022933D01*
X96341768Y-59022933D01*
X96369346Y-59025649D01*
X96369346Y-59025649D01*
G37*
G36*
X89480015Y-58486973D02*
G01*
X89583879Y-58518479D01*
X89611055Y-58533005D01*
X89679600Y-58569643D01*
X89763501Y-58638499D01*
X89832357Y-58722400D01*
X89868995Y-58790945D01*
X89883521Y-58818121D01*
X89915027Y-58921985D01*
X89925666Y-59030000D01*
X89915027Y-59138015D01*
X89883521Y-59241879D01*
X89883519Y-59241882D01*
X89832357Y-59337600D01*
X89763501Y-59421501D01*
X89679600Y-59490357D01*
X89611055Y-59526995D01*
X89583879Y-59541521D01*
X89480015Y-59573027D01*
X89399067Y-59581000D01*
X87820933Y-59581000D01*
X87739985Y-59573027D01*
X87636121Y-59541521D01*
X87608945Y-59526995D01*
X87540400Y-59490357D01*
X87456499Y-59421501D01*
X87387643Y-59337600D01*
X87336481Y-59241882D01*
X87336479Y-59241879D01*
X87304973Y-59138015D01*
X87294334Y-59030000D01*
X87304973Y-58921985D01*
X87336479Y-58818121D01*
X87351005Y-58790945D01*
X87387643Y-58722400D01*
X87456499Y-58638499D01*
X87540400Y-58569643D01*
X87608945Y-58533005D01*
X87636121Y-58518479D01*
X87739985Y-58486973D01*
X87820933Y-58479000D01*
X89399067Y-58479000D01*
X89480015Y-58486973D01*
X89480015Y-58486973D01*
G37*
G36*
X95248408Y-59424933D02*
G01*
X93926408Y-59424933D01*
X93926408Y-58672933D01*
X95248408Y-58672933D01*
X95248408Y-59424933D01*
X95248408Y-59424933D01*
G37*
G36*
X92628408Y-58474933D02*
G01*
X91306408Y-58474933D01*
X91306408Y-57722933D01*
X92628408Y-57722933D01*
X92628408Y-58474933D01*
X92628408Y-58474933D01*
G37*
G36*
X89500015Y-56666973D02*
G01*
X89603879Y-56698479D01*
X89631055Y-56713005D01*
X89699600Y-56749643D01*
X89783501Y-56818499D01*
X89852357Y-56902400D01*
X89888995Y-56970945D01*
X89903521Y-56998121D01*
X89935027Y-57101985D01*
X89945666Y-57210000D01*
X89935027Y-57318015D01*
X89903521Y-57421879D01*
X89903519Y-57421882D01*
X89852357Y-57517600D01*
X89783501Y-57601501D01*
X89699600Y-57670357D01*
X89631055Y-57706995D01*
X89603879Y-57721521D01*
X89500015Y-57753027D01*
X89419067Y-57761000D01*
X87840933Y-57761000D01*
X87759985Y-57753027D01*
X87656121Y-57721521D01*
X87628945Y-57706995D01*
X87560400Y-57670357D01*
X87476499Y-57601501D01*
X87407643Y-57517600D01*
X87356481Y-57421882D01*
X87356479Y-57421879D01*
X87324973Y-57318015D01*
X87314334Y-57210000D01*
X87324973Y-57101985D01*
X87356479Y-56998121D01*
X87371005Y-56970945D01*
X87407643Y-56902400D01*
X87476499Y-56818499D01*
X87560400Y-56749643D01*
X87628945Y-56713005D01*
X87656121Y-56698479D01*
X87759985Y-56666973D01*
X87840933Y-56659000D01*
X89419067Y-56659000D01*
X89500015Y-56666973D01*
X89500015Y-56666973D01*
G37*
G36*
X95248408Y-57524933D02*
G01*
X93926408Y-57524933D01*
X93926408Y-56772933D01*
X95248408Y-56772933D01*
X95248408Y-57524933D01*
X95248408Y-57524933D01*
G37*
G36*
X96369346Y-56485649D02*
G01*
X96389965Y-56491904D01*
X96408961Y-56502057D01*
X96425616Y-56515725D01*
X96439284Y-56532380D01*
X96449437Y-56551376D01*
X96455692Y-56571995D01*
X96458408Y-56599573D01*
X96458408Y-57058293D01*
X96455692Y-57085871D01*
X96449437Y-57106490D01*
X96439284Y-57125486D01*
X96425616Y-57142141D01*
X96408961Y-57155809D01*
X96389965Y-57165962D01*
X96369346Y-57172217D01*
X96341768Y-57174933D01*
X95833048Y-57174933D01*
X95805470Y-57172217D01*
X95784851Y-57165962D01*
X95765855Y-57155809D01*
X95749200Y-57142141D01*
X95735532Y-57125486D01*
X95725379Y-57106490D01*
X95719124Y-57085871D01*
X95716408Y-57058293D01*
X95716408Y-56599573D01*
X95719124Y-56571995D01*
X95725379Y-56551376D01*
X95735532Y-56532380D01*
X95749200Y-56515725D01*
X95765855Y-56502057D01*
X95784851Y-56491904D01*
X95805470Y-56485649D01*
X95833048Y-56482933D01*
X96341768Y-56482933D01*
X96369346Y-56485649D01*
X96369346Y-56485649D01*
G37*
G36*
X96369346Y-55515649D02*
G01*
X96389965Y-55521904D01*
X96408961Y-55532057D01*
X96425616Y-55545725D01*
X96439284Y-55562380D01*
X96449437Y-55581376D01*
X96455692Y-55601995D01*
X96458408Y-55629573D01*
X96458408Y-56088293D01*
X96455692Y-56115871D01*
X96449437Y-56136490D01*
X96439284Y-56155486D01*
X96425616Y-56172141D01*
X96408961Y-56185809D01*
X96389965Y-56195962D01*
X96369346Y-56202217D01*
X96341768Y-56204933D01*
X95833048Y-56204933D01*
X95805470Y-56202217D01*
X95784851Y-56195962D01*
X95765855Y-56185809D01*
X95749200Y-56172141D01*
X95735532Y-56155486D01*
X95725379Y-56136490D01*
X95719124Y-56115871D01*
X95716408Y-56088293D01*
X95716408Y-55629573D01*
X95719124Y-55601995D01*
X95725379Y-55581376D01*
X95735532Y-55562380D01*
X95749200Y-55545725D01*
X95765855Y-55532057D01*
X95784851Y-55521904D01*
X95805470Y-55515649D01*
X95833048Y-55512933D01*
X96341768Y-55512933D01*
X96369346Y-55515649D01*
X96369346Y-55515649D01*
G37*
G36*
X89460015Y-53966973D02*
G01*
X89563879Y-53998479D01*
X89579811Y-54006995D01*
X89659600Y-54049643D01*
X89743501Y-54118499D01*
X89812357Y-54202400D01*
X89848995Y-54270945D01*
X89863521Y-54298121D01*
X89895027Y-54401985D01*
X89905666Y-54510000D01*
X89895027Y-54618015D01*
X89863521Y-54721879D01*
X89863519Y-54721882D01*
X89812357Y-54817600D01*
X89743501Y-54901501D01*
X89659600Y-54970357D01*
X89591055Y-55006995D01*
X89563879Y-55021521D01*
X89460015Y-55053027D01*
X89379067Y-55061000D01*
X87800933Y-55061000D01*
X87719985Y-55053027D01*
X87616121Y-55021521D01*
X87588945Y-55006995D01*
X87520400Y-54970357D01*
X87436499Y-54901501D01*
X87367643Y-54817600D01*
X87316481Y-54721882D01*
X87316479Y-54721879D01*
X87284973Y-54618015D01*
X87274334Y-54510000D01*
X87284973Y-54401985D01*
X87316479Y-54298121D01*
X87331005Y-54270945D01*
X87367643Y-54202400D01*
X87436499Y-54118499D01*
X87520400Y-54049643D01*
X87600189Y-54006995D01*
X87616121Y-53998479D01*
X87719985Y-53966973D01*
X87800933Y-53959000D01*
X89379067Y-53959000D01*
X89460015Y-53966973D01*
X89460015Y-53966973D01*
G37*
G36*
X93049346Y-53920649D02*
G01*
X93069965Y-53926904D01*
X93088961Y-53937057D01*
X93105616Y-53950725D01*
X93119284Y-53967380D01*
X93129437Y-53986376D01*
X93135692Y-54006995D01*
X93138408Y-54034573D01*
X93138408Y-54543293D01*
X93135692Y-54570871D01*
X93129437Y-54591490D01*
X93119284Y-54610486D01*
X93105616Y-54627141D01*
X93088961Y-54640809D01*
X93069965Y-54650962D01*
X93049346Y-54657217D01*
X93021768Y-54659933D01*
X92563048Y-54659933D01*
X92535470Y-54657217D01*
X92514851Y-54650962D01*
X92495855Y-54640809D01*
X92479200Y-54627141D01*
X92465532Y-54610486D01*
X92455379Y-54591490D01*
X92449124Y-54570871D01*
X92446408Y-54543293D01*
X92446408Y-54034573D01*
X92449124Y-54006995D01*
X92455379Y-53986376D01*
X92465532Y-53967380D01*
X92479200Y-53950725D01*
X92495855Y-53937057D01*
X92514851Y-53926904D01*
X92535470Y-53920649D01*
X92563048Y-53917933D01*
X93021768Y-53917933D01*
X93049346Y-53920649D01*
X93049346Y-53920649D01*
G37*
G36*
X94019346Y-53920649D02*
G01*
X94039965Y-53926904D01*
X94058961Y-53937057D01*
X94075616Y-53950725D01*
X94089284Y-53967380D01*
X94099437Y-53986376D01*
X94105692Y-54006995D01*
X94108408Y-54034573D01*
X94108408Y-54543293D01*
X94105692Y-54570871D01*
X94099437Y-54591490D01*
X94089284Y-54610486D01*
X94075616Y-54627141D01*
X94058961Y-54640809D01*
X94039965Y-54650962D01*
X94019346Y-54657217D01*
X93991768Y-54659933D01*
X93533048Y-54659933D01*
X93505470Y-54657217D01*
X93484851Y-54650962D01*
X93465855Y-54640809D01*
X93449200Y-54627141D01*
X93435532Y-54610486D01*
X93425379Y-54591490D01*
X93419124Y-54570871D01*
X93416408Y-54543293D01*
X93416408Y-54034573D01*
X93419124Y-54006995D01*
X93425379Y-53986376D01*
X93435532Y-53967380D01*
X93449200Y-53950725D01*
X93465855Y-53937057D01*
X93484851Y-53926904D01*
X93505470Y-53920649D01*
X93533048Y-53917933D01*
X93991768Y-53917933D01*
X94019346Y-53920649D01*
X94019346Y-53920649D01*
G37*
M02*
