G04 #@! TF.GenerationSoftware,KiCad,Pcbnew,(5.1.2)-2*
G04 #@! TF.CreationDate,2019-10-08T18:44:44+02:00*
G04 #@! TF.ProjectId,BadUSB,42616455-5342-42e6-9b69-6361645f7063,rev?*
G04 #@! TF.SameCoordinates,Original*
G04 #@! TF.FileFunction,Copper,L2,Bot*
G04 #@! TF.FilePolarity,Positive*
%FSLAX46Y46*%
G04 Gerber Fmt 4.6, Leading zero omitted, Abs format (unit mm)*
G04 Created by KiCad (PCBNEW (5.1.2)-2) date 2019-10-08 18:44:44*
%MOMM*%
%LPD*%
G04 APERTURE LIST*
%ADD10O,2.524000X1.000000*%
%ADD11R,0.600000X1.750000*%
%ADD12C,0.100000*%
%ADD13C,0.590000*%
%ADD14R,1.220000X0.650000*%
%ADD15C,0.800000*%
%ADD16C,0.250000*%
G04 APERTURE END LIST*
D10*
X88590000Y-61560000D03*
X88610000Y-59030000D03*
X88630000Y-57210000D03*
X88590000Y-54510000D03*
D11*
X92550000Y-61390000D03*
X94550000Y-61390000D03*
X93550000Y-61390000D03*
X95550000Y-61390000D03*
D12*
G36*
X92954366Y-53969643D02*
G01*
X92968684Y-53971767D01*
X92982725Y-53975284D01*
X92996354Y-53980161D01*
X93009439Y-53986350D01*
X93021855Y-53993791D01*
X93033481Y-54002414D01*
X93044206Y-54012135D01*
X93053927Y-54022860D01*
X93062550Y-54034486D01*
X93069991Y-54046902D01*
X93076180Y-54059987D01*
X93081057Y-54073616D01*
X93084574Y-54087657D01*
X93086698Y-54101975D01*
X93087408Y-54116433D01*
X93087408Y-54461433D01*
X93086698Y-54475891D01*
X93084574Y-54490209D01*
X93081057Y-54504250D01*
X93076180Y-54517879D01*
X93069991Y-54530964D01*
X93062550Y-54543380D01*
X93053927Y-54555006D01*
X93044206Y-54565731D01*
X93033481Y-54575452D01*
X93021855Y-54584075D01*
X93009439Y-54591516D01*
X92996354Y-54597705D01*
X92982725Y-54602582D01*
X92968684Y-54606099D01*
X92954366Y-54608223D01*
X92939908Y-54608933D01*
X92644908Y-54608933D01*
X92630450Y-54608223D01*
X92616132Y-54606099D01*
X92602091Y-54602582D01*
X92588462Y-54597705D01*
X92575377Y-54591516D01*
X92562961Y-54584075D01*
X92551335Y-54575452D01*
X92540610Y-54565731D01*
X92530889Y-54555006D01*
X92522266Y-54543380D01*
X92514825Y-54530964D01*
X92508636Y-54517879D01*
X92503759Y-54504250D01*
X92500242Y-54490209D01*
X92498118Y-54475891D01*
X92497408Y-54461433D01*
X92497408Y-54116433D01*
X92498118Y-54101975D01*
X92500242Y-54087657D01*
X92503759Y-54073616D01*
X92508636Y-54059987D01*
X92514825Y-54046902D01*
X92522266Y-54034486D01*
X92530889Y-54022860D01*
X92540610Y-54012135D01*
X92551335Y-54002414D01*
X92562961Y-53993791D01*
X92575377Y-53986350D01*
X92588462Y-53980161D01*
X92602091Y-53975284D01*
X92616132Y-53971767D01*
X92630450Y-53969643D01*
X92644908Y-53968933D01*
X92939908Y-53968933D01*
X92954366Y-53969643D01*
X92954366Y-53969643D01*
G37*
D13*
X92792408Y-54288933D03*
D12*
G36*
X93924366Y-53969643D02*
G01*
X93938684Y-53971767D01*
X93952725Y-53975284D01*
X93966354Y-53980161D01*
X93979439Y-53986350D01*
X93991855Y-53993791D01*
X94003481Y-54002414D01*
X94014206Y-54012135D01*
X94023927Y-54022860D01*
X94032550Y-54034486D01*
X94039991Y-54046902D01*
X94046180Y-54059987D01*
X94051057Y-54073616D01*
X94054574Y-54087657D01*
X94056698Y-54101975D01*
X94057408Y-54116433D01*
X94057408Y-54461433D01*
X94056698Y-54475891D01*
X94054574Y-54490209D01*
X94051057Y-54504250D01*
X94046180Y-54517879D01*
X94039991Y-54530964D01*
X94032550Y-54543380D01*
X94023927Y-54555006D01*
X94014206Y-54565731D01*
X94003481Y-54575452D01*
X93991855Y-54584075D01*
X93979439Y-54591516D01*
X93966354Y-54597705D01*
X93952725Y-54602582D01*
X93938684Y-54606099D01*
X93924366Y-54608223D01*
X93909908Y-54608933D01*
X93614908Y-54608933D01*
X93600450Y-54608223D01*
X93586132Y-54606099D01*
X93572091Y-54602582D01*
X93558462Y-54597705D01*
X93545377Y-54591516D01*
X93532961Y-54584075D01*
X93521335Y-54575452D01*
X93510610Y-54565731D01*
X93500889Y-54555006D01*
X93492266Y-54543380D01*
X93484825Y-54530964D01*
X93478636Y-54517879D01*
X93473759Y-54504250D01*
X93470242Y-54490209D01*
X93468118Y-54475891D01*
X93467408Y-54461433D01*
X93467408Y-54116433D01*
X93468118Y-54101975D01*
X93470242Y-54087657D01*
X93473759Y-54073616D01*
X93478636Y-54059987D01*
X93484825Y-54046902D01*
X93492266Y-54034486D01*
X93500889Y-54022860D01*
X93510610Y-54012135D01*
X93521335Y-54002414D01*
X93532961Y-53993791D01*
X93545377Y-53986350D01*
X93558462Y-53980161D01*
X93572091Y-53975284D01*
X93586132Y-53971767D01*
X93600450Y-53969643D01*
X93614908Y-53968933D01*
X93909908Y-53968933D01*
X93924366Y-53969643D01*
X93924366Y-53969643D01*
G37*
D13*
X93762408Y-54288933D03*
D12*
G36*
X96274366Y-55564643D02*
G01*
X96288684Y-55566767D01*
X96302725Y-55570284D01*
X96316354Y-55575161D01*
X96329439Y-55581350D01*
X96341855Y-55588791D01*
X96353481Y-55597414D01*
X96364206Y-55607135D01*
X96373927Y-55617860D01*
X96382550Y-55629486D01*
X96389991Y-55641902D01*
X96396180Y-55654987D01*
X96401057Y-55668616D01*
X96404574Y-55682657D01*
X96406698Y-55696975D01*
X96407408Y-55711433D01*
X96407408Y-56006433D01*
X96406698Y-56020891D01*
X96404574Y-56035209D01*
X96401057Y-56049250D01*
X96396180Y-56062879D01*
X96389991Y-56075964D01*
X96382550Y-56088380D01*
X96373927Y-56100006D01*
X96364206Y-56110731D01*
X96353481Y-56120452D01*
X96341855Y-56129075D01*
X96329439Y-56136516D01*
X96316354Y-56142705D01*
X96302725Y-56147582D01*
X96288684Y-56151099D01*
X96274366Y-56153223D01*
X96259908Y-56153933D01*
X95914908Y-56153933D01*
X95900450Y-56153223D01*
X95886132Y-56151099D01*
X95872091Y-56147582D01*
X95858462Y-56142705D01*
X95845377Y-56136516D01*
X95832961Y-56129075D01*
X95821335Y-56120452D01*
X95810610Y-56110731D01*
X95800889Y-56100006D01*
X95792266Y-56088380D01*
X95784825Y-56075964D01*
X95778636Y-56062879D01*
X95773759Y-56049250D01*
X95770242Y-56035209D01*
X95768118Y-56020891D01*
X95767408Y-56006433D01*
X95767408Y-55711433D01*
X95768118Y-55696975D01*
X95770242Y-55682657D01*
X95773759Y-55668616D01*
X95778636Y-55654987D01*
X95784825Y-55641902D01*
X95792266Y-55629486D01*
X95800889Y-55617860D01*
X95810610Y-55607135D01*
X95821335Y-55597414D01*
X95832961Y-55588791D01*
X95845377Y-55581350D01*
X95858462Y-55575161D01*
X95872091Y-55570284D01*
X95886132Y-55566767D01*
X95900450Y-55564643D01*
X95914908Y-55563933D01*
X96259908Y-55563933D01*
X96274366Y-55564643D01*
X96274366Y-55564643D01*
G37*
D13*
X96087408Y-55858933D03*
D12*
G36*
X96274366Y-56534643D02*
G01*
X96288684Y-56536767D01*
X96302725Y-56540284D01*
X96316354Y-56545161D01*
X96329439Y-56551350D01*
X96341855Y-56558791D01*
X96353481Y-56567414D01*
X96364206Y-56577135D01*
X96373927Y-56587860D01*
X96382550Y-56599486D01*
X96389991Y-56611902D01*
X96396180Y-56624987D01*
X96401057Y-56638616D01*
X96404574Y-56652657D01*
X96406698Y-56666975D01*
X96407408Y-56681433D01*
X96407408Y-56976433D01*
X96406698Y-56990891D01*
X96404574Y-57005209D01*
X96401057Y-57019250D01*
X96396180Y-57032879D01*
X96389991Y-57045964D01*
X96382550Y-57058380D01*
X96373927Y-57070006D01*
X96364206Y-57080731D01*
X96353481Y-57090452D01*
X96341855Y-57099075D01*
X96329439Y-57106516D01*
X96316354Y-57112705D01*
X96302725Y-57117582D01*
X96288684Y-57121099D01*
X96274366Y-57123223D01*
X96259908Y-57123933D01*
X95914908Y-57123933D01*
X95900450Y-57123223D01*
X95886132Y-57121099D01*
X95872091Y-57117582D01*
X95858462Y-57112705D01*
X95845377Y-57106516D01*
X95832961Y-57099075D01*
X95821335Y-57090452D01*
X95810610Y-57080731D01*
X95800889Y-57070006D01*
X95792266Y-57058380D01*
X95784825Y-57045964D01*
X95778636Y-57032879D01*
X95773759Y-57019250D01*
X95770242Y-57005209D01*
X95768118Y-56990891D01*
X95767408Y-56976433D01*
X95767408Y-56681433D01*
X95768118Y-56666975D01*
X95770242Y-56652657D01*
X95773759Y-56638616D01*
X95778636Y-56624987D01*
X95784825Y-56611902D01*
X95792266Y-56599486D01*
X95800889Y-56587860D01*
X95810610Y-56577135D01*
X95821335Y-56567414D01*
X95832961Y-56558791D01*
X95845377Y-56551350D01*
X95858462Y-56545161D01*
X95872091Y-56540284D01*
X95886132Y-56536767D01*
X95900450Y-56534643D01*
X95914908Y-56533933D01*
X96259908Y-56533933D01*
X96274366Y-56534643D01*
X96274366Y-56534643D01*
G37*
D13*
X96087408Y-56828933D03*
D12*
G36*
X96274366Y-60044643D02*
G01*
X96288684Y-60046767D01*
X96302725Y-60050284D01*
X96316354Y-60055161D01*
X96329439Y-60061350D01*
X96341855Y-60068791D01*
X96353481Y-60077414D01*
X96364206Y-60087135D01*
X96373927Y-60097860D01*
X96382550Y-60109486D01*
X96389991Y-60121902D01*
X96396180Y-60134987D01*
X96401057Y-60148616D01*
X96404574Y-60162657D01*
X96406698Y-60176975D01*
X96407408Y-60191433D01*
X96407408Y-60486433D01*
X96406698Y-60500891D01*
X96404574Y-60515209D01*
X96401057Y-60529250D01*
X96396180Y-60542879D01*
X96389991Y-60555964D01*
X96382550Y-60568380D01*
X96373927Y-60580006D01*
X96364206Y-60590731D01*
X96353481Y-60600452D01*
X96341855Y-60609075D01*
X96329439Y-60616516D01*
X96316354Y-60622705D01*
X96302725Y-60627582D01*
X96288684Y-60631099D01*
X96274366Y-60633223D01*
X96259908Y-60633933D01*
X95914908Y-60633933D01*
X95900450Y-60633223D01*
X95886132Y-60631099D01*
X95872091Y-60627582D01*
X95858462Y-60622705D01*
X95845377Y-60616516D01*
X95832961Y-60609075D01*
X95821335Y-60600452D01*
X95810610Y-60590731D01*
X95800889Y-60580006D01*
X95792266Y-60568380D01*
X95784825Y-60555964D01*
X95778636Y-60542879D01*
X95773759Y-60529250D01*
X95770242Y-60515209D01*
X95768118Y-60500891D01*
X95767408Y-60486433D01*
X95767408Y-60191433D01*
X95768118Y-60176975D01*
X95770242Y-60162657D01*
X95773759Y-60148616D01*
X95778636Y-60134987D01*
X95784825Y-60121902D01*
X95792266Y-60109486D01*
X95800889Y-60097860D01*
X95810610Y-60087135D01*
X95821335Y-60077414D01*
X95832961Y-60068791D01*
X95845377Y-60061350D01*
X95858462Y-60055161D01*
X95872091Y-60050284D01*
X95886132Y-60046767D01*
X95900450Y-60044643D01*
X95914908Y-60043933D01*
X96259908Y-60043933D01*
X96274366Y-60044643D01*
X96274366Y-60044643D01*
G37*
D13*
X96087408Y-60338933D03*
D12*
G36*
X96274366Y-59074643D02*
G01*
X96288684Y-59076767D01*
X96302725Y-59080284D01*
X96316354Y-59085161D01*
X96329439Y-59091350D01*
X96341855Y-59098791D01*
X96353481Y-59107414D01*
X96364206Y-59117135D01*
X96373927Y-59127860D01*
X96382550Y-59139486D01*
X96389991Y-59151902D01*
X96396180Y-59164987D01*
X96401057Y-59178616D01*
X96404574Y-59192657D01*
X96406698Y-59206975D01*
X96407408Y-59221433D01*
X96407408Y-59516433D01*
X96406698Y-59530891D01*
X96404574Y-59545209D01*
X96401057Y-59559250D01*
X96396180Y-59572879D01*
X96389991Y-59585964D01*
X96382550Y-59598380D01*
X96373927Y-59610006D01*
X96364206Y-59620731D01*
X96353481Y-59630452D01*
X96341855Y-59639075D01*
X96329439Y-59646516D01*
X96316354Y-59652705D01*
X96302725Y-59657582D01*
X96288684Y-59661099D01*
X96274366Y-59663223D01*
X96259908Y-59663933D01*
X95914908Y-59663933D01*
X95900450Y-59663223D01*
X95886132Y-59661099D01*
X95872091Y-59657582D01*
X95858462Y-59652705D01*
X95845377Y-59646516D01*
X95832961Y-59639075D01*
X95821335Y-59630452D01*
X95810610Y-59620731D01*
X95800889Y-59610006D01*
X95792266Y-59598380D01*
X95784825Y-59585964D01*
X95778636Y-59572879D01*
X95773759Y-59559250D01*
X95770242Y-59545209D01*
X95768118Y-59530891D01*
X95767408Y-59516433D01*
X95767408Y-59221433D01*
X95768118Y-59206975D01*
X95770242Y-59192657D01*
X95773759Y-59178616D01*
X95778636Y-59164987D01*
X95784825Y-59151902D01*
X95792266Y-59139486D01*
X95800889Y-59127860D01*
X95810610Y-59117135D01*
X95821335Y-59107414D01*
X95832961Y-59098791D01*
X95845377Y-59091350D01*
X95858462Y-59085161D01*
X95872091Y-59080284D01*
X95886132Y-59076767D01*
X95900450Y-59074643D01*
X95914908Y-59073933D01*
X96259908Y-59073933D01*
X96274366Y-59074643D01*
X96274366Y-59074643D01*
G37*
D13*
X96087408Y-59368933D03*
D14*
X91967408Y-58098933D03*
X94587408Y-59048933D03*
X94587408Y-57148933D03*
D15*
X93550000Y-57850000D03*
X94540000Y-58140000D03*
X91559402Y-55895083D03*
X96285200Y-61085200D03*
X92792408Y-55890739D03*
X94624198Y-55782378D03*
D16*
X93550000Y-60265000D02*
X93550000Y-61390000D01*
X93762408Y-54708933D02*
X93550000Y-54921341D01*
X93762408Y-54288933D02*
X93762408Y-54708933D01*
X93550000Y-57600000D02*
X93550000Y-57850000D01*
X93550000Y-57600000D02*
X93550000Y-60265000D01*
X93550000Y-56396525D02*
X93550000Y-55990000D01*
X94302408Y-57148933D02*
X93550000Y-56396525D01*
X94587408Y-57148933D02*
X94302408Y-57148933D01*
X93550000Y-54921341D02*
X93550000Y-55990000D01*
X93550000Y-55990000D02*
X93550000Y-57600000D01*
X94251067Y-57148933D02*
X93550000Y-57850000D01*
X94587408Y-57148933D02*
X94251067Y-57148933D01*
X95767408Y-59048933D02*
X96087408Y-59368933D01*
X94587408Y-59048933D02*
X95767408Y-59048933D01*
X96087408Y-59368933D02*
X96087408Y-56828933D01*
X94770000Y-59231525D02*
X94587408Y-59048933D01*
X94780000Y-59241525D02*
X94587408Y-59048933D01*
X94587408Y-61352592D02*
X94550000Y-61390000D01*
X94587408Y-59048933D02*
X94587408Y-61352592D01*
X94587408Y-59048933D02*
X94587408Y-58187408D01*
X94587408Y-58187408D02*
X94540000Y-58140000D01*
X91817408Y-58248933D02*
X91967408Y-58098933D01*
X91682408Y-58098933D02*
X91521565Y-57938090D01*
X91967408Y-58098933D02*
X91682408Y-58098933D01*
X91967408Y-58098933D02*
X91967408Y-56340926D01*
X91967408Y-56340926D02*
X91698675Y-56072193D01*
X91698675Y-56072193D02*
X91698675Y-56034356D01*
X91698675Y-56034356D02*
X91559402Y-55895083D01*
X91967408Y-58098933D02*
X91967408Y-59647408D01*
X92550000Y-60230000D02*
X92550000Y-61390000D01*
X91967408Y-59647408D02*
X92550000Y-60230000D01*
X96087408Y-60338933D02*
X96087408Y-60962468D01*
X95854800Y-61085200D02*
X95550000Y-61390000D01*
X96285200Y-61085200D02*
X95854800Y-61085200D01*
X95550000Y-61030687D02*
X95550000Y-61390000D01*
X96087408Y-60338933D02*
X96087408Y-60493280D01*
X96087408Y-60887408D02*
X96285200Y-61085200D01*
X96087408Y-60338933D02*
X96087408Y-60887408D01*
X96183600Y-61085200D02*
X95839544Y-60741144D01*
X96285200Y-61085200D02*
X96183600Y-61085200D01*
X96087408Y-60493280D02*
X95839544Y-60741144D01*
X95839544Y-60741144D02*
X95550000Y-61030687D01*
X92792408Y-54288933D02*
X92792408Y-55890739D01*
X96010853Y-55782378D02*
X96087408Y-55858933D01*
X94624198Y-55782378D02*
X96010853Y-55782378D01*
M02*
