G04 #@! TF.GenerationSoftware,KiCad,Pcbnew,(5.1.2)-2*
G04 #@! TF.CreationDate,2019-10-08T18:44:44+02:00*
G04 #@! TF.ProjectId,BadUSB,42616455-5342-42e6-9b69-6361645f7063,rev?*
G04 #@! TF.SameCoordinates,Original*
G04 #@! TF.FileFunction,Legend,Bot*
G04 #@! TF.FilePolarity,Positive*
%FSLAX46Y46*%
G04 Gerber Fmt 4.6, Leading zero omitted, Abs format (unit mm)*
G04 Created by KiCad (PCBNEW (5.1.2)-2) date 2019-10-08 18:44:44*
%MOMM*%
%LPD*%
G04 APERTURE LIST*
%ADD10C,0.150000*%
%ADD11C,0.120000*%
G04 APERTURE END LIST*
D10*
X98913571Y-55765714D02*
X98961190Y-55908571D01*
X99008809Y-55956190D01*
X99104047Y-56003809D01*
X99246904Y-56003809D01*
X99342142Y-55956190D01*
X99389761Y-55908571D01*
X99437380Y-55813333D01*
X99437380Y-55432380D01*
X98437380Y-55432380D01*
X98437380Y-55765714D01*
X98485000Y-55860952D01*
X98532619Y-55908571D01*
X98627857Y-55956190D01*
X98723095Y-55956190D01*
X98818333Y-55908571D01*
X98865952Y-55860952D01*
X98913571Y-55765714D01*
X98913571Y-55432380D01*
X99437380Y-56860952D02*
X98913571Y-56860952D01*
X98818333Y-56813333D01*
X98770714Y-56718095D01*
X98770714Y-56527619D01*
X98818333Y-56432380D01*
X99389761Y-56860952D02*
X99437380Y-56765714D01*
X99437380Y-56527619D01*
X99389761Y-56432380D01*
X99294523Y-56384761D01*
X99199285Y-56384761D01*
X99104047Y-56432380D01*
X99056428Y-56527619D01*
X99056428Y-56765714D01*
X99008809Y-56860952D01*
X99437380Y-57765714D02*
X98437380Y-57765714D01*
X99389761Y-57765714D02*
X99437380Y-57670476D01*
X99437380Y-57480000D01*
X99389761Y-57384761D01*
X99342142Y-57337142D01*
X99246904Y-57289523D01*
X98961190Y-57289523D01*
X98865952Y-57337142D01*
X98818333Y-57384761D01*
X98770714Y-57480000D01*
X98770714Y-57670476D01*
X98818333Y-57765714D01*
X98437380Y-58241904D02*
X99246904Y-58241904D01*
X99342142Y-58289523D01*
X99389761Y-58337142D01*
X99437380Y-58432380D01*
X99437380Y-58622857D01*
X99389761Y-58718095D01*
X99342142Y-58765714D01*
X99246904Y-58813333D01*
X98437380Y-58813333D01*
X99389761Y-59241904D02*
X99437380Y-59337142D01*
X99437380Y-59527619D01*
X99389761Y-59622857D01*
X99294523Y-59670476D01*
X99246904Y-59670476D01*
X99151666Y-59622857D01*
X99104047Y-59527619D01*
X99104047Y-59384761D01*
X99056428Y-59289523D01*
X98961190Y-59241904D01*
X98913571Y-59241904D01*
X98818333Y-59289523D01*
X98770714Y-59384761D01*
X98770714Y-59527619D01*
X98818333Y-59622857D01*
X99437380Y-60099047D02*
X98437380Y-60099047D01*
X98818333Y-60099047D02*
X98770714Y-60194285D01*
X98770714Y-60384761D01*
X98818333Y-60480000D01*
X98865952Y-60527619D01*
X98961190Y-60575238D01*
X99246904Y-60575238D01*
X99342142Y-60527619D01*
X99389761Y-60480000D01*
X99437380Y-60384761D01*
X99437380Y-60194285D01*
X99389761Y-60099047D01*
X100087380Y-56456190D02*
X101087380Y-56789523D01*
X100087380Y-57122857D01*
X100087380Y-57360952D02*
X100087380Y-57979999D01*
X100468333Y-57646666D01*
X100468333Y-57789523D01*
X100515952Y-57884761D01*
X100563571Y-57932380D01*
X100658809Y-57979999D01*
X100896904Y-57979999D01*
X100992142Y-57932380D01*
X101039761Y-57884761D01*
X101087380Y-57789523D01*
X101087380Y-57503809D01*
X101039761Y-57408571D01*
X100992142Y-57360952D01*
X100992142Y-58408571D02*
X101039761Y-58456190D01*
X101087380Y-58408571D01*
X101039761Y-58360952D01*
X100992142Y-58408571D01*
X101087380Y-58408571D01*
X101087380Y-59408571D02*
X101087380Y-58837142D01*
X101087380Y-59122857D02*
X100087380Y-59122857D01*
X100230238Y-59027619D01*
X100325476Y-58932380D01*
X100373095Y-58837142D01*
D11*
X92347408Y-56588933D02*
X94777408Y-56588933D01*
X92327408Y-56598933D02*
X92327408Y-57598933D01*
X92327408Y-59648933D02*
X94177408Y-59648933D01*
X92327408Y-58598933D02*
X92327408Y-59648933D01*
M02*
