G04 #@! TF.GenerationSoftware,KiCad,Pcbnew,(5.1.2)-1*
G04 #@! TF.CreationDate,2019-07-06T22:03:01+02:00*
G04 #@! TF.ProjectId,BadUSB,42616455-5342-42e6-9b69-6361645f7063,rev?*
G04 #@! TF.SameCoordinates,Original*
G04 #@! TF.FileFunction,Paste,Bot*
G04 #@! TF.FilePolarity,Positive*
%FSLAX46Y46*%
G04 Gerber Fmt 4.6, Leading zero omitted, Abs format (unit mm)*
G04 Created by KiCad (PCBNEW (5.1.2)-1) date 2019-07-06 22:03:01*
%MOMM*%
%LPD*%
G04 APERTURE LIST*
%ADD10R,1.750000X0.600000*%
%ADD11C,0.100000*%
%ADD12C,0.590000*%
%ADD13R,0.650000X1.220000*%
G04 APERTURE END LIST*
D10*
X95250000Y-47220000D03*
X95250000Y-45220000D03*
X95250000Y-46220000D03*
X95250000Y-44220000D03*
D11*
G36*
X88335891Y-46683302D02*
G01*
X88350209Y-46685426D01*
X88364250Y-46688943D01*
X88377879Y-46693820D01*
X88390964Y-46700009D01*
X88403380Y-46707450D01*
X88415006Y-46716073D01*
X88425731Y-46725794D01*
X88435452Y-46736519D01*
X88444075Y-46748145D01*
X88451516Y-46760561D01*
X88457705Y-46773646D01*
X88462582Y-46787275D01*
X88466099Y-46801316D01*
X88468223Y-46815634D01*
X88468933Y-46830092D01*
X88468933Y-47125092D01*
X88468223Y-47139550D01*
X88466099Y-47153868D01*
X88462582Y-47167909D01*
X88457705Y-47181538D01*
X88451516Y-47194623D01*
X88444075Y-47207039D01*
X88435452Y-47218665D01*
X88425731Y-47229390D01*
X88415006Y-47239111D01*
X88403380Y-47247734D01*
X88390964Y-47255175D01*
X88377879Y-47261364D01*
X88364250Y-47266241D01*
X88350209Y-47269758D01*
X88335891Y-47271882D01*
X88321433Y-47272592D01*
X87976433Y-47272592D01*
X87961975Y-47271882D01*
X87947657Y-47269758D01*
X87933616Y-47266241D01*
X87919987Y-47261364D01*
X87906902Y-47255175D01*
X87894486Y-47247734D01*
X87882860Y-47239111D01*
X87872135Y-47229390D01*
X87862414Y-47218665D01*
X87853791Y-47207039D01*
X87846350Y-47194623D01*
X87840161Y-47181538D01*
X87835284Y-47167909D01*
X87831767Y-47153868D01*
X87829643Y-47139550D01*
X87828933Y-47125092D01*
X87828933Y-46830092D01*
X87829643Y-46815634D01*
X87831767Y-46801316D01*
X87835284Y-46787275D01*
X87840161Y-46773646D01*
X87846350Y-46760561D01*
X87853791Y-46748145D01*
X87862414Y-46736519D01*
X87872135Y-46725794D01*
X87882860Y-46716073D01*
X87894486Y-46707450D01*
X87906902Y-46700009D01*
X87919987Y-46693820D01*
X87933616Y-46688943D01*
X87947657Y-46685426D01*
X87961975Y-46683302D01*
X87976433Y-46682592D01*
X88321433Y-46682592D01*
X88335891Y-46683302D01*
X88335891Y-46683302D01*
G37*
D12*
X88148933Y-46977592D03*
D11*
G36*
X88335891Y-45713302D02*
G01*
X88350209Y-45715426D01*
X88364250Y-45718943D01*
X88377879Y-45723820D01*
X88390964Y-45730009D01*
X88403380Y-45737450D01*
X88415006Y-45746073D01*
X88425731Y-45755794D01*
X88435452Y-45766519D01*
X88444075Y-45778145D01*
X88451516Y-45790561D01*
X88457705Y-45803646D01*
X88462582Y-45817275D01*
X88466099Y-45831316D01*
X88468223Y-45845634D01*
X88468933Y-45860092D01*
X88468933Y-46155092D01*
X88468223Y-46169550D01*
X88466099Y-46183868D01*
X88462582Y-46197909D01*
X88457705Y-46211538D01*
X88451516Y-46224623D01*
X88444075Y-46237039D01*
X88435452Y-46248665D01*
X88425731Y-46259390D01*
X88415006Y-46269111D01*
X88403380Y-46277734D01*
X88390964Y-46285175D01*
X88377879Y-46291364D01*
X88364250Y-46296241D01*
X88350209Y-46299758D01*
X88335891Y-46301882D01*
X88321433Y-46302592D01*
X87976433Y-46302592D01*
X87961975Y-46301882D01*
X87947657Y-46299758D01*
X87933616Y-46296241D01*
X87919987Y-46291364D01*
X87906902Y-46285175D01*
X87894486Y-46277734D01*
X87882860Y-46269111D01*
X87872135Y-46259390D01*
X87862414Y-46248665D01*
X87853791Y-46237039D01*
X87846350Y-46224623D01*
X87840161Y-46211538D01*
X87835284Y-46197909D01*
X87831767Y-46183868D01*
X87829643Y-46169550D01*
X87828933Y-46155092D01*
X87828933Y-45860092D01*
X87829643Y-45845634D01*
X87831767Y-45831316D01*
X87835284Y-45817275D01*
X87840161Y-45803646D01*
X87846350Y-45790561D01*
X87853791Y-45778145D01*
X87862414Y-45766519D01*
X87872135Y-45755794D01*
X87882860Y-45746073D01*
X87894486Y-45737450D01*
X87906902Y-45730009D01*
X87919987Y-45723820D01*
X87933616Y-45718943D01*
X87947657Y-45715426D01*
X87961975Y-45713302D01*
X87976433Y-45712592D01*
X88321433Y-45712592D01*
X88335891Y-45713302D01*
X88335891Y-45713302D01*
G37*
D12*
X88148933Y-46007592D03*
D11*
G36*
X89880891Y-43363302D02*
G01*
X89895209Y-43365426D01*
X89909250Y-43368943D01*
X89922879Y-43373820D01*
X89935964Y-43380009D01*
X89948380Y-43387450D01*
X89960006Y-43396073D01*
X89970731Y-43405794D01*
X89980452Y-43416519D01*
X89989075Y-43428145D01*
X89996516Y-43440561D01*
X90002705Y-43453646D01*
X90007582Y-43467275D01*
X90011099Y-43481316D01*
X90013223Y-43495634D01*
X90013933Y-43510092D01*
X90013933Y-43855092D01*
X90013223Y-43869550D01*
X90011099Y-43883868D01*
X90007582Y-43897909D01*
X90002705Y-43911538D01*
X89996516Y-43924623D01*
X89989075Y-43937039D01*
X89980452Y-43948665D01*
X89970731Y-43959390D01*
X89960006Y-43969111D01*
X89948380Y-43977734D01*
X89935964Y-43985175D01*
X89922879Y-43991364D01*
X89909250Y-43996241D01*
X89895209Y-43999758D01*
X89880891Y-44001882D01*
X89866433Y-44002592D01*
X89571433Y-44002592D01*
X89556975Y-44001882D01*
X89542657Y-43999758D01*
X89528616Y-43996241D01*
X89514987Y-43991364D01*
X89501902Y-43985175D01*
X89489486Y-43977734D01*
X89477860Y-43969111D01*
X89467135Y-43959390D01*
X89457414Y-43948665D01*
X89448791Y-43937039D01*
X89441350Y-43924623D01*
X89435161Y-43911538D01*
X89430284Y-43897909D01*
X89426767Y-43883868D01*
X89424643Y-43869550D01*
X89423933Y-43855092D01*
X89423933Y-43510092D01*
X89424643Y-43495634D01*
X89426767Y-43481316D01*
X89430284Y-43467275D01*
X89435161Y-43453646D01*
X89441350Y-43440561D01*
X89448791Y-43428145D01*
X89457414Y-43416519D01*
X89467135Y-43405794D01*
X89477860Y-43396073D01*
X89489486Y-43387450D01*
X89501902Y-43380009D01*
X89514987Y-43373820D01*
X89528616Y-43368943D01*
X89542657Y-43365426D01*
X89556975Y-43363302D01*
X89571433Y-43362592D01*
X89866433Y-43362592D01*
X89880891Y-43363302D01*
X89880891Y-43363302D01*
G37*
D12*
X89718933Y-43682592D03*
D11*
G36*
X90850891Y-43363302D02*
G01*
X90865209Y-43365426D01*
X90879250Y-43368943D01*
X90892879Y-43373820D01*
X90905964Y-43380009D01*
X90918380Y-43387450D01*
X90930006Y-43396073D01*
X90940731Y-43405794D01*
X90950452Y-43416519D01*
X90959075Y-43428145D01*
X90966516Y-43440561D01*
X90972705Y-43453646D01*
X90977582Y-43467275D01*
X90981099Y-43481316D01*
X90983223Y-43495634D01*
X90983933Y-43510092D01*
X90983933Y-43855092D01*
X90983223Y-43869550D01*
X90981099Y-43883868D01*
X90977582Y-43897909D01*
X90972705Y-43911538D01*
X90966516Y-43924623D01*
X90959075Y-43937039D01*
X90950452Y-43948665D01*
X90940731Y-43959390D01*
X90930006Y-43969111D01*
X90918380Y-43977734D01*
X90905964Y-43985175D01*
X90892879Y-43991364D01*
X90879250Y-43996241D01*
X90865209Y-43999758D01*
X90850891Y-44001882D01*
X90836433Y-44002592D01*
X90541433Y-44002592D01*
X90526975Y-44001882D01*
X90512657Y-43999758D01*
X90498616Y-43996241D01*
X90484987Y-43991364D01*
X90471902Y-43985175D01*
X90459486Y-43977734D01*
X90447860Y-43969111D01*
X90437135Y-43959390D01*
X90427414Y-43948665D01*
X90418791Y-43937039D01*
X90411350Y-43924623D01*
X90405161Y-43911538D01*
X90400284Y-43897909D01*
X90396767Y-43883868D01*
X90394643Y-43869550D01*
X90393933Y-43855092D01*
X90393933Y-43510092D01*
X90394643Y-43495634D01*
X90396767Y-43481316D01*
X90400284Y-43467275D01*
X90405161Y-43453646D01*
X90411350Y-43440561D01*
X90418791Y-43428145D01*
X90427414Y-43416519D01*
X90437135Y-43405794D01*
X90447860Y-43396073D01*
X90459486Y-43387450D01*
X90471902Y-43380009D01*
X90484987Y-43373820D01*
X90498616Y-43368943D01*
X90512657Y-43365426D01*
X90526975Y-43363302D01*
X90541433Y-43362592D01*
X90836433Y-43362592D01*
X90850891Y-43363302D01*
X90850891Y-43363302D01*
G37*
D12*
X90688933Y-43682592D03*
D11*
G36*
X94360891Y-43363302D02*
G01*
X94375209Y-43365426D01*
X94389250Y-43368943D01*
X94402879Y-43373820D01*
X94415964Y-43380009D01*
X94428380Y-43387450D01*
X94440006Y-43396073D01*
X94450731Y-43405794D01*
X94460452Y-43416519D01*
X94469075Y-43428145D01*
X94476516Y-43440561D01*
X94482705Y-43453646D01*
X94487582Y-43467275D01*
X94491099Y-43481316D01*
X94493223Y-43495634D01*
X94493933Y-43510092D01*
X94493933Y-43855092D01*
X94493223Y-43869550D01*
X94491099Y-43883868D01*
X94487582Y-43897909D01*
X94482705Y-43911538D01*
X94476516Y-43924623D01*
X94469075Y-43937039D01*
X94460452Y-43948665D01*
X94450731Y-43959390D01*
X94440006Y-43969111D01*
X94428380Y-43977734D01*
X94415964Y-43985175D01*
X94402879Y-43991364D01*
X94389250Y-43996241D01*
X94375209Y-43999758D01*
X94360891Y-44001882D01*
X94346433Y-44002592D01*
X94051433Y-44002592D01*
X94036975Y-44001882D01*
X94022657Y-43999758D01*
X94008616Y-43996241D01*
X93994987Y-43991364D01*
X93981902Y-43985175D01*
X93969486Y-43977734D01*
X93957860Y-43969111D01*
X93947135Y-43959390D01*
X93937414Y-43948665D01*
X93928791Y-43937039D01*
X93921350Y-43924623D01*
X93915161Y-43911538D01*
X93910284Y-43897909D01*
X93906767Y-43883868D01*
X93904643Y-43869550D01*
X93903933Y-43855092D01*
X93903933Y-43510092D01*
X93904643Y-43495634D01*
X93906767Y-43481316D01*
X93910284Y-43467275D01*
X93915161Y-43453646D01*
X93921350Y-43440561D01*
X93928791Y-43428145D01*
X93937414Y-43416519D01*
X93947135Y-43405794D01*
X93957860Y-43396073D01*
X93969486Y-43387450D01*
X93981902Y-43380009D01*
X93994987Y-43373820D01*
X94008616Y-43368943D01*
X94022657Y-43365426D01*
X94036975Y-43363302D01*
X94051433Y-43362592D01*
X94346433Y-43362592D01*
X94360891Y-43363302D01*
X94360891Y-43363302D01*
G37*
D12*
X94198933Y-43682592D03*
D11*
G36*
X93390891Y-43363302D02*
G01*
X93405209Y-43365426D01*
X93419250Y-43368943D01*
X93432879Y-43373820D01*
X93445964Y-43380009D01*
X93458380Y-43387450D01*
X93470006Y-43396073D01*
X93480731Y-43405794D01*
X93490452Y-43416519D01*
X93499075Y-43428145D01*
X93506516Y-43440561D01*
X93512705Y-43453646D01*
X93517582Y-43467275D01*
X93521099Y-43481316D01*
X93523223Y-43495634D01*
X93523933Y-43510092D01*
X93523933Y-43855092D01*
X93523223Y-43869550D01*
X93521099Y-43883868D01*
X93517582Y-43897909D01*
X93512705Y-43911538D01*
X93506516Y-43924623D01*
X93499075Y-43937039D01*
X93490452Y-43948665D01*
X93480731Y-43959390D01*
X93470006Y-43969111D01*
X93458380Y-43977734D01*
X93445964Y-43985175D01*
X93432879Y-43991364D01*
X93419250Y-43996241D01*
X93405209Y-43999758D01*
X93390891Y-44001882D01*
X93376433Y-44002592D01*
X93081433Y-44002592D01*
X93066975Y-44001882D01*
X93052657Y-43999758D01*
X93038616Y-43996241D01*
X93024987Y-43991364D01*
X93011902Y-43985175D01*
X92999486Y-43977734D01*
X92987860Y-43969111D01*
X92977135Y-43959390D01*
X92967414Y-43948665D01*
X92958791Y-43937039D01*
X92951350Y-43924623D01*
X92945161Y-43911538D01*
X92940284Y-43897909D01*
X92936767Y-43883868D01*
X92934643Y-43869550D01*
X92933933Y-43855092D01*
X92933933Y-43510092D01*
X92934643Y-43495634D01*
X92936767Y-43481316D01*
X92940284Y-43467275D01*
X92945161Y-43453646D01*
X92951350Y-43440561D01*
X92958791Y-43428145D01*
X92967414Y-43416519D01*
X92977135Y-43405794D01*
X92987860Y-43396073D01*
X92999486Y-43387450D01*
X93011902Y-43380009D01*
X93024987Y-43373820D01*
X93038616Y-43368943D01*
X93052657Y-43365426D01*
X93066975Y-43363302D01*
X93081433Y-43362592D01*
X93376433Y-43362592D01*
X93390891Y-43363302D01*
X93390891Y-43363302D01*
G37*
D12*
X93228933Y-43682592D03*
D13*
X91958933Y-47802592D03*
X92908933Y-45182592D03*
X91008933Y-45182592D03*
M02*
