G04 #@! TF.GenerationSoftware,KiCad,Pcbnew,(5.1.2)-1*
G04 #@! TF.CreationDate,2019-07-06T22:03:01+02:00*
G04 #@! TF.ProjectId,BadUSB,42616455-5342-42e6-9b69-6361645f7063,rev?*
G04 #@! TF.SameCoordinates,Original*
G04 #@! TF.FileFunction,Soldermask,Bot*
G04 #@! TF.FilePolarity,Negative*
%FSLAX46Y46*%
G04 Gerber Fmt 4.6, Leading zero omitted, Abs format (unit mm)*
G04 Created by KiCad (PCBNEW (5.1.2)-1) date 2019-07-06 22:03:01*
%MOMM*%
%LPD*%
G04 APERTURE LIST*
%ADD10C,0.100000*%
G04 APERTURE END LIST*
D10*
G36*
X92334933Y-48463592D02*
G01*
X91582933Y-48463592D01*
X91582933Y-47141592D01*
X92334933Y-47141592D01*
X92334933Y-48463592D01*
X92334933Y-48463592D01*
G37*
G36*
X96176000Y-47571000D02*
G01*
X94324000Y-47571000D01*
X94324000Y-46869000D01*
X96176000Y-46869000D01*
X96176000Y-47571000D01*
X96176000Y-47571000D01*
G37*
G36*
X88430871Y-46634308D02*
G01*
X88451490Y-46640563D01*
X88470486Y-46650716D01*
X88487141Y-46664384D01*
X88500809Y-46681039D01*
X88510962Y-46700035D01*
X88517217Y-46720654D01*
X88519933Y-46748232D01*
X88519933Y-47206952D01*
X88517217Y-47234530D01*
X88510962Y-47255149D01*
X88500809Y-47274145D01*
X88487141Y-47290800D01*
X88470486Y-47304468D01*
X88451490Y-47314621D01*
X88430871Y-47320876D01*
X88403293Y-47323592D01*
X87894573Y-47323592D01*
X87866995Y-47320876D01*
X87846376Y-47314621D01*
X87827380Y-47304468D01*
X87810725Y-47290800D01*
X87797057Y-47274145D01*
X87786904Y-47255149D01*
X87780649Y-47234530D01*
X87777933Y-47206952D01*
X87777933Y-46748232D01*
X87780649Y-46720654D01*
X87786904Y-46700035D01*
X87797057Y-46681039D01*
X87810725Y-46664384D01*
X87827380Y-46650716D01*
X87846376Y-46640563D01*
X87866995Y-46634308D01*
X87894573Y-46631592D01*
X88403293Y-46631592D01*
X88430871Y-46634308D01*
X88430871Y-46634308D01*
G37*
G36*
X96176000Y-46571000D02*
G01*
X94324000Y-46571000D01*
X94324000Y-45869000D01*
X96176000Y-45869000D01*
X96176000Y-46571000D01*
X96176000Y-46571000D01*
G37*
G36*
X88430871Y-45664308D02*
G01*
X88451490Y-45670563D01*
X88470486Y-45680716D01*
X88487141Y-45694384D01*
X88500809Y-45711039D01*
X88510962Y-45730035D01*
X88517217Y-45750654D01*
X88519933Y-45778232D01*
X88519933Y-46236952D01*
X88517217Y-46264530D01*
X88510962Y-46285149D01*
X88500809Y-46304145D01*
X88487141Y-46320800D01*
X88470486Y-46334468D01*
X88451490Y-46344621D01*
X88430871Y-46350876D01*
X88403293Y-46353592D01*
X87894573Y-46353592D01*
X87866995Y-46350876D01*
X87846376Y-46344621D01*
X87827380Y-46334468D01*
X87810725Y-46320800D01*
X87797057Y-46304145D01*
X87786904Y-46285149D01*
X87780649Y-46264530D01*
X87777933Y-46236952D01*
X87777933Y-45778232D01*
X87780649Y-45750654D01*
X87786904Y-45730035D01*
X87797057Y-45711039D01*
X87810725Y-45694384D01*
X87827380Y-45680716D01*
X87846376Y-45670563D01*
X87866995Y-45664308D01*
X87894573Y-45661592D01*
X88403293Y-45661592D01*
X88430871Y-45664308D01*
X88430871Y-45664308D01*
G37*
G36*
X91384933Y-45843592D02*
G01*
X90632933Y-45843592D01*
X90632933Y-44521592D01*
X91384933Y-44521592D01*
X91384933Y-45843592D01*
X91384933Y-45843592D01*
G37*
G36*
X93284933Y-45843592D02*
G01*
X92532933Y-45843592D01*
X92532933Y-44521592D01*
X93284933Y-44521592D01*
X93284933Y-45843592D01*
X93284933Y-45843592D01*
G37*
G36*
X96176000Y-45571000D02*
G01*
X94324000Y-45571000D01*
X94324000Y-44869000D01*
X96176000Y-44869000D01*
X96176000Y-45571000D01*
X96176000Y-45571000D01*
G37*
G36*
X94455871Y-43314308D02*
G01*
X94476490Y-43320563D01*
X94495486Y-43330716D01*
X94512141Y-43344384D01*
X94525809Y-43361039D01*
X94535962Y-43380035D01*
X94542217Y-43400654D01*
X94544933Y-43428232D01*
X94544933Y-43744001D01*
X94547335Y-43768387D01*
X94554448Y-43791836D01*
X94565999Y-43813447D01*
X94581544Y-43832389D01*
X94600486Y-43847934D01*
X94622097Y-43859485D01*
X94645546Y-43866598D01*
X94669932Y-43869000D01*
X96176000Y-43869000D01*
X96176000Y-44571000D01*
X94324000Y-44571000D01*
X94324000Y-44178591D01*
X94321598Y-44154205D01*
X94314485Y-44130756D01*
X94302934Y-44109145D01*
X94287389Y-44090203D01*
X94268447Y-44074658D01*
X94246836Y-44063107D01*
X94223387Y-44055994D01*
X94199001Y-44053592D01*
X93969573Y-44053592D01*
X93941995Y-44050876D01*
X93921376Y-44044621D01*
X93902380Y-44034468D01*
X93885725Y-44020800D01*
X93872057Y-44004145D01*
X93861904Y-43985149D01*
X93855649Y-43964530D01*
X93852933Y-43936952D01*
X93852933Y-43428232D01*
X93855649Y-43400654D01*
X93861904Y-43380035D01*
X93872057Y-43361039D01*
X93885725Y-43344384D01*
X93902380Y-43330716D01*
X93921376Y-43320563D01*
X93941995Y-43314308D01*
X93969573Y-43311592D01*
X94428293Y-43311592D01*
X94455871Y-43314308D01*
X94455871Y-43314308D01*
G37*
G36*
X89975871Y-43314308D02*
G01*
X89996490Y-43320563D01*
X90015486Y-43330716D01*
X90032141Y-43344384D01*
X90045809Y-43361039D01*
X90055962Y-43380035D01*
X90062217Y-43400654D01*
X90064933Y-43428232D01*
X90064933Y-43936952D01*
X90062217Y-43964530D01*
X90055962Y-43985149D01*
X90045809Y-44004145D01*
X90032141Y-44020800D01*
X90015486Y-44034468D01*
X89996490Y-44044621D01*
X89975871Y-44050876D01*
X89948293Y-44053592D01*
X89489573Y-44053592D01*
X89461995Y-44050876D01*
X89441376Y-44044621D01*
X89422380Y-44034468D01*
X89405725Y-44020800D01*
X89392057Y-44004145D01*
X89381904Y-43985149D01*
X89375649Y-43964530D01*
X89372933Y-43936952D01*
X89372933Y-43428232D01*
X89375649Y-43400654D01*
X89381904Y-43380035D01*
X89392057Y-43361039D01*
X89405725Y-43344384D01*
X89422380Y-43330716D01*
X89441376Y-43320563D01*
X89461995Y-43314308D01*
X89489573Y-43311592D01*
X89948293Y-43311592D01*
X89975871Y-43314308D01*
X89975871Y-43314308D01*
G37*
G36*
X90945871Y-43314308D02*
G01*
X90966490Y-43320563D01*
X90985486Y-43330716D01*
X91002141Y-43344384D01*
X91015809Y-43361039D01*
X91025962Y-43380035D01*
X91032217Y-43400654D01*
X91034933Y-43428232D01*
X91034933Y-43936952D01*
X91032217Y-43964530D01*
X91025962Y-43985149D01*
X91015809Y-44004145D01*
X91002141Y-44020800D01*
X90985486Y-44034468D01*
X90966490Y-44044621D01*
X90945871Y-44050876D01*
X90918293Y-44053592D01*
X90459573Y-44053592D01*
X90431995Y-44050876D01*
X90411376Y-44044621D01*
X90392380Y-44034468D01*
X90375725Y-44020800D01*
X90362057Y-44004145D01*
X90351904Y-43985149D01*
X90345649Y-43964530D01*
X90342933Y-43936952D01*
X90342933Y-43428232D01*
X90345649Y-43400654D01*
X90351904Y-43380035D01*
X90362057Y-43361039D01*
X90375725Y-43344384D01*
X90392380Y-43330716D01*
X90411376Y-43320563D01*
X90431995Y-43314308D01*
X90459573Y-43311592D01*
X90918293Y-43311592D01*
X90945871Y-43314308D01*
X90945871Y-43314308D01*
G37*
G36*
X93485871Y-43314308D02*
G01*
X93506490Y-43320563D01*
X93525486Y-43330716D01*
X93542141Y-43344384D01*
X93555809Y-43361039D01*
X93565962Y-43380035D01*
X93572217Y-43400654D01*
X93574933Y-43428232D01*
X93574933Y-43936952D01*
X93572217Y-43964530D01*
X93565962Y-43985149D01*
X93555809Y-44004145D01*
X93542141Y-44020800D01*
X93525486Y-44034468D01*
X93506490Y-44044621D01*
X93485871Y-44050876D01*
X93458293Y-44053592D01*
X92999573Y-44053592D01*
X92971995Y-44050876D01*
X92951376Y-44044621D01*
X92932380Y-44034468D01*
X92915725Y-44020800D01*
X92902057Y-44004145D01*
X92891904Y-43985149D01*
X92885649Y-43964530D01*
X92882933Y-43936952D01*
X92882933Y-43428232D01*
X92885649Y-43400654D01*
X92891904Y-43380035D01*
X92902057Y-43361039D01*
X92915725Y-43344384D01*
X92932380Y-43330716D01*
X92951376Y-43320563D01*
X92971995Y-43314308D01*
X92999573Y-43311592D01*
X93458293Y-43311592D01*
X93485871Y-43314308D01*
X93485871Y-43314308D01*
G37*
M02*
