G04 #@! TF.GenerationSoftware,KiCad,Pcbnew,(5.1.2)-1*
G04 #@! TF.CreationDate,2019-07-06T21:55:56+02:00*
G04 #@! TF.ProjectId,BadUSB,42616455-5342-42e6-9b69-6361645f7063,rev?*
G04 #@! TF.SameCoordinates,Original*
G04 #@! TF.FileFunction,Soldermask,Top*
G04 #@! TF.FilePolarity,Negative*
%FSLAX46Y46*%
G04 Gerber Fmt 4.6, Leading zero omitted, Abs format (unit mm)*
G04 Created by KiCad (PCBNEW (5.1.2)-1) date 2019-07-06 21:55:56*
%MOMM*%
%LPD*%
G04 APERTURE LIST*
%ADD10C,0.100000*%
G04 APERTURE END LIST*
D10*
G36*
X89209933Y-48503592D02*
G01*
X87407933Y-48503592D01*
X87407933Y-47751592D01*
X89209933Y-47751592D01*
X89209933Y-48503592D01*
X89209933Y-48503592D01*
G37*
G36*
X96509933Y-48503592D02*
G01*
X94707933Y-48503592D01*
X94707933Y-47751592D01*
X96509933Y-47751592D01*
X96509933Y-48503592D01*
X96509933Y-48503592D01*
G37*
G36*
X98476000Y-44476000D02*
G01*
X98450025Y-44476000D01*
X98425639Y-44478402D01*
X98402190Y-44485515D01*
X98380579Y-44497066D01*
X98361637Y-44512611D01*
X98346092Y-44531553D01*
X98334541Y-44553164D01*
X98327428Y-44576613D01*
X98325026Y-44600999D01*
X98327428Y-44625385D01*
X98334541Y-44648834D01*
X98353396Y-44680292D01*
X98397694Y-44734269D01*
X98441894Y-44816961D01*
X98469113Y-44906688D01*
X98478303Y-45000000D01*
X98469113Y-45093312D01*
X98441894Y-45183039D01*
X98397694Y-45265731D01*
X98338211Y-45338211D01*
X98265731Y-45397694D01*
X98265726Y-45397697D01*
X98258808Y-45403374D01*
X98241481Y-45420701D01*
X98227867Y-45441075D01*
X98218490Y-45463714D01*
X98213709Y-45487747D01*
X98213709Y-45512251D01*
X98218489Y-45536285D01*
X98227866Y-45558924D01*
X98241480Y-45579298D01*
X98258808Y-45596626D01*
X98265726Y-45602303D01*
X98265731Y-45602306D01*
X98338211Y-45661789D01*
X98397694Y-45734269D01*
X98441894Y-45816961D01*
X98469113Y-45906688D01*
X98478303Y-46000000D01*
X98469113Y-46093312D01*
X98441894Y-46183039D01*
X98397694Y-46265731D01*
X98338211Y-46338211D01*
X98265731Y-46397694D01*
X98265726Y-46397697D01*
X98258808Y-46403374D01*
X98241481Y-46420701D01*
X98227867Y-46441075D01*
X98218490Y-46463714D01*
X98213709Y-46487747D01*
X98213709Y-46512251D01*
X98218489Y-46536285D01*
X98227866Y-46558924D01*
X98241480Y-46579298D01*
X98258808Y-46596626D01*
X98265726Y-46602303D01*
X98265731Y-46602306D01*
X98338211Y-46661789D01*
X98397694Y-46734269D01*
X98441894Y-46816961D01*
X98469113Y-46906688D01*
X98478303Y-47000000D01*
X98469113Y-47093312D01*
X98441894Y-47183039D01*
X98397694Y-47265731D01*
X98338211Y-47338211D01*
X98265731Y-47397694D01*
X98183039Y-47441894D01*
X98093312Y-47469113D01*
X98023384Y-47476000D01*
X97976616Y-47476000D01*
X97906688Y-47469113D01*
X97816961Y-47441894D01*
X97734269Y-47397694D01*
X97661789Y-47338211D01*
X97602306Y-47265731D01*
X97558106Y-47183039D01*
X97530887Y-47093312D01*
X97521697Y-47000000D01*
X97530887Y-46906688D01*
X97558106Y-46816961D01*
X97602306Y-46734269D01*
X97661789Y-46661789D01*
X97734269Y-46602306D01*
X97734274Y-46602303D01*
X97741192Y-46596626D01*
X97758519Y-46579299D01*
X97772133Y-46558925D01*
X97781510Y-46536286D01*
X97786291Y-46512253D01*
X97786291Y-46487749D01*
X97781511Y-46463715D01*
X97772134Y-46441076D01*
X97758520Y-46420702D01*
X97741192Y-46403374D01*
X97734274Y-46397697D01*
X97734269Y-46397694D01*
X97661789Y-46338211D01*
X97602306Y-46265731D01*
X97558106Y-46183039D01*
X97530887Y-46093312D01*
X97521697Y-46000000D01*
X97530887Y-45906688D01*
X97558106Y-45816961D01*
X97602306Y-45734269D01*
X97661789Y-45661789D01*
X97734269Y-45602306D01*
X97734274Y-45602303D01*
X97741192Y-45596626D01*
X97758519Y-45579299D01*
X97772133Y-45558925D01*
X97781510Y-45536286D01*
X97786291Y-45512253D01*
X97786291Y-45487749D01*
X97781511Y-45463715D01*
X97772134Y-45441076D01*
X97758520Y-45420702D01*
X97741192Y-45403374D01*
X97734274Y-45397697D01*
X97734269Y-45397694D01*
X97661789Y-45338211D01*
X97602306Y-45265731D01*
X97558106Y-45183039D01*
X97530887Y-45093312D01*
X97521697Y-45000000D01*
X97530887Y-44906688D01*
X97558106Y-44816961D01*
X97602306Y-44734269D01*
X97646606Y-44680289D01*
X97660214Y-44659923D01*
X97669592Y-44637284D01*
X97674372Y-44613251D01*
X97674372Y-44588747D01*
X97669592Y-44564714D01*
X97660214Y-44542075D01*
X97646600Y-44521700D01*
X97629273Y-44504373D01*
X97608899Y-44490760D01*
X97586260Y-44481382D01*
X97549975Y-44476000D01*
X97524000Y-44476000D01*
X97524000Y-43524000D01*
X98476000Y-43524000D01*
X98476000Y-44476000D01*
X98476000Y-44476000D01*
G37*
G36*
X96509933Y-47233592D02*
G01*
X94707933Y-47233592D01*
X94707933Y-46481592D01*
X96509933Y-46481592D01*
X96509933Y-47233592D01*
X96509933Y-47233592D01*
G37*
G36*
X89209933Y-47233592D02*
G01*
X87407933Y-47233592D01*
X87407933Y-46481592D01*
X89209933Y-46481592D01*
X89209933Y-47233592D01*
X89209933Y-47233592D01*
G37*
G36*
X96509933Y-45963592D02*
G01*
X94707933Y-45963592D01*
X94707933Y-45211592D01*
X96509933Y-45211592D01*
X96509933Y-45963592D01*
X96509933Y-45963592D01*
G37*
G36*
X89209933Y-45963592D02*
G01*
X87407933Y-45963592D01*
X87407933Y-45211592D01*
X89209933Y-45211592D01*
X89209933Y-45963592D01*
X89209933Y-45963592D01*
G37*
G36*
X89209933Y-44693592D02*
G01*
X87407933Y-44693592D01*
X87407933Y-43941592D01*
X89209933Y-43941592D01*
X89209933Y-44693592D01*
X89209933Y-44693592D01*
G37*
G36*
X96509933Y-44693592D02*
G01*
X94707933Y-44693592D01*
X94707933Y-43941592D01*
X96509933Y-43941592D01*
X96509933Y-44693592D01*
X96509933Y-44693592D01*
G37*
M02*
