G04 #@! TF.GenerationSoftware,KiCad,Pcbnew,(5.1.2)-1*
G04 #@! TF.CreationDate,2019-07-06T21:55:56+02:00*
G04 #@! TF.ProjectId,BadUSB,42616455-5342-42e6-9b69-6361645f7063,rev?*
G04 #@! TF.SameCoordinates,Original*
G04 #@! TF.FileFunction,Legend,Top*
G04 #@! TF.FilePolarity,Positive*
%FSLAX46Y46*%
G04 Gerber Fmt 4.6, Leading zero omitted, Abs format (unit mm)*
G04 Created by KiCad (PCBNEW (5.1.2)-1) date 2019-07-06 21:55:56*
%MOMM*%
%LPD*%
G04 APERTURE LIST*
%ADD10C,0.150000*%
%ADD11C,0.120000*%
G04 APERTURE END LIST*
D10*
X100552380Y-49190476D02*
X100552380Y-49380952D01*
X100600000Y-49476190D01*
X100647619Y-49523809D01*
X100790476Y-49619047D01*
X100980952Y-49666666D01*
X101361904Y-49666666D01*
X101457142Y-49619047D01*
X101504761Y-49571428D01*
X101552380Y-49476190D01*
X101552380Y-49285714D01*
X101504761Y-49190476D01*
X101457142Y-49142857D01*
X101361904Y-49095238D01*
X101123809Y-49095238D01*
X101028571Y-49142857D01*
X100980952Y-49190476D01*
X100933333Y-49285714D01*
X100933333Y-49476190D01*
X100980952Y-49571428D01*
X101028571Y-49619047D01*
X101123809Y-49666666D01*
X101504761Y-48619047D02*
X101552380Y-48619047D01*
X101647619Y-48666666D01*
X101695238Y-48714285D01*
X100552380Y-48000000D02*
X100552380Y-47904761D01*
X100600000Y-47809523D01*
X100647619Y-47761904D01*
X100742857Y-47714285D01*
X100933333Y-47666666D01*
X101171428Y-47666666D01*
X101361904Y-47714285D01*
X101457142Y-47761904D01*
X101504761Y-47809523D01*
X101552380Y-47904761D01*
X101552380Y-48000000D01*
X101504761Y-48095238D01*
X101457142Y-48142857D01*
X101361904Y-48190476D01*
X101171428Y-48238095D01*
X100933333Y-48238095D01*
X100742857Y-48190476D01*
X100647619Y-48142857D01*
X100600000Y-48095238D01*
X100552380Y-48000000D01*
X100552380Y-47047619D02*
X100552380Y-46952380D01*
X100600000Y-46857142D01*
X100647619Y-46809523D01*
X100742857Y-46761904D01*
X100933333Y-46714285D01*
X101171428Y-46714285D01*
X101361904Y-46761904D01*
X101457142Y-46809523D01*
X101504761Y-46857142D01*
X101552380Y-46952380D01*
X101552380Y-47047619D01*
X101504761Y-47142857D01*
X101457142Y-47190476D01*
X101361904Y-47238095D01*
X101171428Y-47285714D01*
X100933333Y-47285714D01*
X100742857Y-47238095D01*
X100647619Y-47190476D01*
X100600000Y-47142857D01*
X100552380Y-47047619D01*
X100552380Y-46095238D02*
X100552380Y-46000000D01*
X100600000Y-45904761D01*
X100647619Y-45857142D01*
X100742857Y-45809523D01*
X100933333Y-45761904D01*
X101171428Y-45761904D01*
X101361904Y-45809523D01*
X101457142Y-45857142D01*
X101504761Y-45904761D01*
X101552380Y-46000000D01*
X101552380Y-46095238D01*
X101504761Y-46190476D01*
X101457142Y-46238095D01*
X101361904Y-46285714D01*
X101171428Y-46333333D01*
X100933333Y-46333333D01*
X100742857Y-46285714D01*
X100647619Y-46238095D01*
X100600000Y-46190476D01*
X100552380Y-46095238D01*
X101552380Y-44571428D02*
X100885714Y-44571428D01*
X100980952Y-44571428D02*
X100933333Y-44523809D01*
X100885714Y-44428571D01*
X100885714Y-44285714D01*
X100933333Y-44190476D01*
X101028571Y-44142857D01*
X101552380Y-44142857D01*
X101028571Y-44142857D02*
X100933333Y-44095238D01*
X100885714Y-44000000D01*
X100885714Y-43857142D01*
X100933333Y-43761904D01*
X101028571Y-43714285D01*
X101552380Y-43714285D01*
X101552380Y-43238095D02*
X100885714Y-43238095D01*
X100980952Y-43238095D02*
X100933333Y-43190476D01*
X100885714Y-43095238D01*
X100885714Y-42952380D01*
X100933333Y-42857142D01*
X101028571Y-42809523D01*
X101552380Y-42809523D01*
X101028571Y-42809523D02*
X100933333Y-42761904D01*
X100885714Y-42666666D01*
X100885714Y-42523809D01*
X100933333Y-42428571D01*
X101028571Y-42380952D01*
X101552380Y-42380952D01*
D11*
X99830000Y-49000000D02*
X99830000Y-43000000D01*
X99000000Y-49000000D02*
X100416421Y-49000000D01*
X99000000Y-43000000D02*
X100416421Y-43000000D01*
X99830000Y-43000000D02*
X100416421Y-44126504D01*
X99830000Y-43000000D02*
X99243579Y-44126504D01*
X99830000Y-49000000D02*
X100416421Y-47873496D01*
X99830000Y-49000000D02*
X99243579Y-47873496D01*
D10*
X89428571Y-52082380D02*
X88857142Y-52082380D01*
X89142857Y-52082380D02*
X89142857Y-51082380D01*
X89047619Y-51225238D01*
X88952380Y-51320476D01*
X88857142Y-51368095D01*
X89809523Y-51177619D02*
X89857142Y-51130000D01*
X89952380Y-51082380D01*
X90190476Y-51082380D01*
X90285714Y-51130000D01*
X90333333Y-51177619D01*
X90380952Y-51272857D01*
X90380952Y-51368095D01*
X90333333Y-51510952D01*
X89761904Y-52082380D01*
X90380952Y-52082380D01*
X90857142Y-52034761D02*
X90857142Y-52082380D01*
X90809523Y-52177619D01*
X90761904Y-52225238D01*
X91476190Y-51082380D02*
X91571428Y-51082380D01*
X91666666Y-51130000D01*
X91714285Y-51177619D01*
X91761904Y-51272857D01*
X91809523Y-51463333D01*
X91809523Y-51701428D01*
X91761904Y-51891904D01*
X91714285Y-51987142D01*
X91666666Y-52034761D01*
X91571428Y-52082380D01*
X91476190Y-52082380D01*
X91380952Y-52034761D01*
X91333333Y-51987142D01*
X91285714Y-51891904D01*
X91238095Y-51701428D01*
X91238095Y-51463333D01*
X91285714Y-51272857D01*
X91333333Y-51177619D01*
X91380952Y-51130000D01*
X91476190Y-51082380D01*
X92428571Y-51082380D02*
X92523809Y-51082380D01*
X92619047Y-51130000D01*
X92666666Y-51177619D01*
X92714285Y-51272857D01*
X92761904Y-51463333D01*
X92761904Y-51701428D01*
X92714285Y-51891904D01*
X92666666Y-51987142D01*
X92619047Y-52034761D01*
X92523809Y-52082380D01*
X92428571Y-52082380D01*
X92333333Y-52034761D01*
X92285714Y-51987142D01*
X92238095Y-51891904D01*
X92190476Y-51701428D01*
X92190476Y-51463333D01*
X92238095Y-51272857D01*
X92285714Y-51177619D01*
X92333333Y-51130000D01*
X92428571Y-51082380D01*
X93380952Y-51082380D02*
X93476190Y-51082380D01*
X93571428Y-51130000D01*
X93619047Y-51177619D01*
X93666666Y-51272857D01*
X93714285Y-51463333D01*
X93714285Y-51701428D01*
X93666666Y-51891904D01*
X93619047Y-51987142D01*
X93571428Y-52034761D01*
X93476190Y-52082380D01*
X93380952Y-52082380D01*
X93285714Y-52034761D01*
X93238095Y-51987142D01*
X93190476Y-51891904D01*
X93142857Y-51701428D01*
X93142857Y-51463333D01*
X93190476Y-51272857D01*
X93238095Y-51177619D01*
X93285714Y-51130000D01*
X93380952Y-51082380D01*
X94904761Y-52082380D02*
X94904761Y-51415714D01*
X94904761Y-51510952D02*
X94952380Y-51463333D01*
X95047619Y-51415714D01*
X95190476Y-51415714D01*
X95285714Y-51463333D01*
X95333333Y-51558571D01*
X95333333Y-52082380D01*
X95333333Y-51558571D02*
X95380952Y-51463333D01*
X95476190Y-51415714D01*
X95619047Y-51415714D01*
X95714285Y-51463333D01*
X95761904Y-51558571D01*
X95761904Y-52082380D01*
X96238095Y-52082380D02*
X96238095Y-51415714D01*
X96238095Y-51510952D02*
X96285714Y-51463333D01*
X96380952Y-51415714D01*
X96523809Y-51415714D01*
X96619047Y-51463333D01*
X96666666Y-51558571D01*
X96666666Y-52082380D01*
X96666666Y-51558571D02*
X96714285Y-51463333D01*
X96809523Y-51415714D01*
X96952380Y-51415714D01*
X97047619Y-51463333D01*
X97095238Y-51558571D01*
X97095238Y-52082380D01*
D11*
X99000000Y-50360000D02*
X87000000Y-50360000D01*
X99000000Y-49000000D02*
X99000000Y-50946421D01*
X87000000Y-49000000D02*
X87000000Y-50946421D01*
X87000000Y-50360000D02*
X88126504Y-49773579D01*
X87000000Y-50360000D02*
X88126504Y-50946421D01*
X99000000Y-50360000D02*
X97873496Y-49773579D01*
X99000000Y-50360000D02*
X97873496Y-50946421D01*
X97305000Y-47560000D02*
X97605507Y-47560000D01*
X98394493Y-47560000D02*
X98695000Y-47560000D01*
X97305000Y-44685000D02*
X97305000Y-47560000D01*
X98695000Y-44685000D02*
X98695000Y-47560000D01*
X97305000Y-44685000D02*
X97391724Y-44685000D01*
X98608276Y-44685000D02*
X98695000Y-44685000D01*
X97305000Y-44000000D02*
X97305000Y-43315000D01*
X97305000Y-43315000D02*
X98000000Y-43315000D01*
D10*
X89208933Y-43467592D02*
X89208933Y-43672592D01*
X94708933Y-43467592D02*
X94708933Y-43767592D01*
X94708933Y-48977592D02*
X94708933Y-48677592D01*
X89208933Y-48977592D02*
X89208933Y-48677592D01*
X89208933Y-43467592D02*
X94708933Y-43467592D01*
X89208933Y-48977592D02*
X94708933Y-48977592D01*
X89208933Y-43672592D02*
X87458933Y-43672592D01*
M02*
