G04 #@! TF.GenerationSoftware,KiCad,Pcbnew,(5.1.2)-1*
G04 #@! TF.CreationDate,2019-07-06T21:55:56+02:00*
G04 #@! TF.ProjectId,BadUSB,42616455-5342-42e6-9b69-6361645f7063,rev?*
G04 #@! TF.SameCoordinates,Original*
G04 #@! TF.FileFunction,Soldermask,Bot*
G04 #@! TF.FilePolarity,Negative*
%FSLAX46Y46*%
G04 Gerber Fmt 4.6, Leading zero omitted, Abs format (unit mm)*
G04 Created by KiCad (PCBNEW (5.1.2)-1) date 2019-07-06 21:55:56*
%MOMM*%
%LPD*%
G04 APERTURE LIST*
%ADD10C,0.100000*%
G04 APERTURE END LIST*
D10*
G36*
X92334933Y-48463592D02*
G01*
X91582933Y-48463592D01*
X91582933Y-47141592D01*
X92334933Y-47141592D01*
X92334933Y-48463592D01*
X92334933Y-48463592D01*
G37*
G36*
X98476000Y-44476000D02*
G01*
X98450025Y-44476000D01*
X98425639Y-44478402D01*
X98402190Y-44485515D01*
X98380579Y-44497066D01*
X98361637Y-44512611D01*
X98346092Y-44531553D01*
X98334541Y-44553164D01*
X98327428Y-44576613D01*
X98325026Y-44600999D01*
X98327428Y-44625385D01*
X98334541Y-44648834D01*
X98353396Y-44680292D01*
X98397694Y-44734269D01*
X98441894Y-44816961D01*
X98469113Y-44906688D01*
X98478303Y-45000000D01*
X98469113Y-45093312D01*
X98441894Y-45183039D01*
X98397694Y-45265731D01*
X98338211Y-45338211D01*
X98265731Y-45397694D01*
X98265726Y-45397697D01*
X98258808Y-45403374D01*
X98241481Y-45420701D01*
X98227867Y-45441075D01*
X98218490Y-45463714D01*
X98213709Y-45487747D01*
X98213709Y-45512251D01*
X98218489Y-45536285D01*
X98227866Y-45558924D01*
X98241480Y-45579298D01*
X98258808Y-45596626D01*
X98265726Y-45602303D01*
X98265731Y-45602306D01*
X98338211Y-45661789D01*
X98397694Y-45734269D01*
X98441894Y-45816961D01*
X98469113Y-45906688D01*
X98478303Y-46000000D01*
X98469113Y-46093312D01*
X98441894Y-46183039D01*
X98397694Y-46265731D01*
X98338211Y-46338211D01*
X98265731Y-46397694D01*
X98265726Y-46397697D01*
X98258808Y-46403374D01*
X98241481Y-46420701D01*
X98227867Y-46441075D01*
X98218490Y-46463714D01*
X98213709Y-46487747D01*
X98213709Y-46512251D01*
X98218489Y-46536285D01*
X98227866Y-46558924D01*
X98241480Y-46579298D01*
X98258808Y-46596626D01*
X98265726Y-46602303D01*
X98265731Y-46602306D01*
X98338211Y-46661789D01*
X98397694Y-46734269D01*
X98441894Y-46816961D01*
X98469113Y-46906688D01*
X98478303Y-47000000D01*
X98469113Y-47093312D01*
X98441894Y-47183039D01*
X98397694Y-47265731D01*
X98338211Y-47338211D01*
X98265731Y-47397694D01*
X98183039Y-47441894D01*
X98093312Y-47469113D01*
X98023384Y-47476000D01*
X97976616Y-47476000D01*
X97906688Y-47469113D01*
X97816961Y-47441894D01*
X97734269Y-47397694D01*
X97661789Y-47338211D01*
X97602306Y-47265731D01*
X97558106Y-47183039D01*
X97530887Y-47093312D01*
X97521697Y-47000000D01*
X97530887Y-46906688D01*
X97558106Y-46816961D01*
X97602306Y-46734269D01*
X97661789Y-46661789D01*
X97734269Y-46602306D01*
X97734274Y-46602303D01*
X97741192Y-46596626D01*
X97758519Y-46579299D01*
X97772133Y-46558925D01*
X97781510Y-46536286D01*
X97786291Y-46512253D01*
X97786291Y-46487749D01*
X97781511Y-46463715D01*
X97772134Y-46441076D01*
X97758520Y-46420702D01*
X97741192Y-46403374D01*
X97734274Y-46397697D01*
X97734269Y-46397694D01*
X97661789Y-46338211D01*
X97602306Y-46265731D01*
X97558106Y-46183039D01*
X97530887Y-46093312D01*
X97521697Y-46000000D01*
X97530887Y-45906688D01*
X97558106Y-45816961D01*
X97602306Y-45734269D01*
X97661789Y-45661789D01*
X97734269Y-45602306D01*
X97734274Y-45602303D01*
X97741192Y-45596626D01*
X97758519Y-45579299D01*
X97772133Y-45558925D01*
X97781510Y-45536286D01*
X97786291Y-45512253D01*
X97786291Y-45487749D01*
X97781511Y-45463715D01*
X97772134Y-45441076D01*
X97758520Y-45420702D01*
X97741192Y-45403374D01*
X97734274Y-45397697D01*
X97734269Y-45397694D01*
X97661789Y-45338211D01*
X97602306Y-45265731D01*
X97558106Y-45183039D01*
X97530887Y-45093312D01*
X97521697Y-45000000D01*
X97530887Y-44906688D01*
X97558106Y-44816961D01*
X97602306Y-44734269D01*
X97646606Y-44680289D01*
X97660214Y-44659923D01*
X97669592Y-44637284D01*
X97674372Y-44613251D01*
X97674372Y-44588747D01*
X97669592Y-44564714D01*
X97660214Y-44542075D01*
X97646600Y-44521700D01*
X97629273Y-44504373D01*
X97608899Y-44490760D01*
X97586260Y-44481382D01*
X97549975Y-44476000D01*
X97524000Y-44476000D01*
X97524000Y-43524000D01*
X98476000Y-43524000D01*
X98476000Y-44476000D01*
X98476000Y-44476000D01*
G37*
G36*
X88430871Y-46634308D02*
G01*
X88451490Y-46640563D01*
X88470486Y-46650716D01*
X88487141Y-46664384D01*
X88500809Y-46681039D01*
X88510962Y-46700035D01*
X88517217Y-46720654D01*
X88519933Y-46748232D01*
X88519933Y-47206952D01*
X88517217Y-47234530D01*
X88510962Y-47255149D01*
X88500809Y-47274145D01*
X88487141Y-47290800D01*
X88470486Y-47304468D01*
X88451490Y-47314621D01*
X88430871Y-47320876D01*
X88403293Y-47323592D01*
X87894573Y-47323592D01*
X87866995Y-47320876D01*
X87846376Y-47314621D01*
X87827380Y-47304468D01*
X87810725Y-47290800D01*
X87797057Y-47274145D01*
X87786904Y-47255149D01*
X87780649Y-47234530D01*
X87777933Y-47206952D01*
X87777933Y-46748232D01*
X87780649Y-46720654D01*
X87786904Y-46700035D01*
X87797057Y-46681039D01*
X87810725Y-46664384D01*
X87827380Y-46650716D01*
X87846376Y-46640563D01*
X87866995Y-46634308D01*
X87894573Y-46631592D01*
X88403293Y-46631592D01*
X88430871Y-46634308D01*
X88430871Y-46634308D01*
G37*
G36*
X88430871Y-45664308D02*
G01*
X88451490Y-45670563D01*
X88470486Y-45680716D01*
X88487141Y-45694384D01*
X88500809Y-45711039D01*
X88510962Y-45730035D01*
X88517217Y-45750654D01*
X88519933Y-45778232D01*
X88519933Y-46236952D01*
X88517217Y-46264530D01*
X88510962Y-46285149D01*
X88500809Y-46304145D01*
X88487141Y-46320800D01*
X88470486Y-46334468D01*
X88451490Y-46344621D01*
X88430871Y-46350876D01*
X88403293Y-46353592D01*
X87894573Y-46353592D01*
X87866995Y-46350876D01*
X87846376Y-46344621D01*
X87827380Y-46334468D01*
X87810725Y-46320800D01*
X87797057Y-46304145D01*
X87786904Y-46285149D01*
X87780649Y-46264530D01*
X87777933Y-46236952D01*
X87777933Y-45778232D01*
X87780649Y-45750654D01*
X87786904Y-45730035D01*
X87797057Y-45711039D01*
X87810725Y-45694384D01*
X87827380Y-45680716D01*
X87846376Y-45670563D01*
X87866995Y-45664308D01*
X87894573Y-45661592D01*
X88403293Y-45661592D01*
X88430871Y-45664308D01*
X88430871Y-45664308D01*
G37*
G36*
X91384933Y-45843592D02*
G01*
X90632933Y-45843592D01*
X90632933Y-44521592D01*
X91384933Y-44521592D01*
X91384933Y-45843592D01*
X91384933Y-45843592D01*
G37*
G36*
X93284933Y-45843592D02*
G01*
X92532933Y-45843592D01*
X92532933Y-44521592D01*
X93284933Y-44521592D01*
X93284933Y-45843592D01*
X93284933Y-45843592D01*
G37*
G36*
X90945871Y-43314308D02*
G01*
X90966490Y-43320563D01*
X90985486Y-43330716D01*
X91002141Y-43344384D01*
X91015809Y-43361039D01*
X91025962Y-43380035D01*
X91032217Y-43400654D01*
X91034933Y-43428232D01*
X91034933Y-43936952D01*
X91032217Y-43964530D01*
X91025962Y-43985149D01*
X91015809Y-44004145D01*
X91002141Y-44020800D01*
X90985486Y-44034468D01*
X90966490Y-44044621D01*
X90945871Y-44050876D01*
X90918293Y-44053592D01*
X90459573Y-44053592D01*
X90431995Y-44050876D01*
X90411376Y-44044621D01*
X90392380Y-44034468D01*
X90375725Y-44020800D01*
X90362057Y-44004145D01*
X90351904Y-43985149D01*
X90345649Y-43964530D01*
X90342933Y-43936952D01*
X90342933Y-43428232D01*
X90345649Y-43400654D01*
X90351904Y-43380035D01*
X90362057Y-43361039D01*
X90375725Y-43344384D01*
X90392380Y-43330716D01*
X90411376Y-43320563D01*
X90431995Y-43314308D01*
X90459573Y-43311592D01*
X90918293Y-43311592D01*
X90945871Y-43314308D01*
X90945871Y-43314308D01*
G37*
G36*
X89975871Y-43314308D02*
G01*
X89996490Y-43320563D01*
X90015486Y-43330716D01*
X90032141Y-43344384D01*
X90045809Y-43361039D01*
X90055962Y-43380035D01*
X90062217Y-43400654D01*
X90064933Y-43428232D01*
X90064933Y-43936952D01*
X90062217Y-43964530D01*
X90055962Y-43985149D01*
X90045809Y-44004145D01*
X90032141Y-44020800D01*
X90015486Y-44034468D01*
X89996490Y-44044621D01*
X89975871Y-44050876D01*
X89948293Y-44053592D01*
X89489573Y-44053592D01*
X89461995Y-44050876D01*
X89441376Y-44044621D01*
X89422380Y-44034468D01*
X89405725Y-44020800D01*
X89392057Y-44004145D01*
X89381904Y-43985149D01*
X89375649Y-43964530D01*
X89372933Y-43936952D01*
X89372933Y-43428232D01*
X89375649Y-43400654D01*
X89381904Y-43380035D01*
X89392057Y-43361039D01*
X89405725Y-43344384D01*
X89422380Y-43330716D01*
X89441376Y-43320563D01*
X89461995Y-43314308D01*
X89489573Y-43311592D01*
X89948293Y-43311592D01*
X89975871Y-43314308D01*
X89975871Y-43314308D01*
G37*
G36*
X93485871Y-43314308D02*
G01*
X93506490Y-43320563D01*
X93525486Y-43330716D01*
X93542141Y-43344384D01*
X93555809Y-43361039D01*
X93565962Y-43380035D01*
X93572217Y-43400654D01*
X93574933Y-43428232D01*
X93574933Y-43936952D01*
X93572217Y-43964530D01*
X93565962Y-43985149D01*
X93555809Y-44004145D01*
X93542141Y-44020800D01*
X93525486Y-44034468D01*
X93506490Y-44044621D01*
X93485871Y-44050876D01*
X93458293Y-44053592D01*
X92999573Y-44053592D01*
X92971995Y-44050876D01*
X92951376Y-44044621D01*
X92932380Y-44034468D01*
X92915725Y-44020800D01*
X92902057Y-44004145D01*
X92891904Y-43985149D01*
X92885649Y-43964530D01*
X92882933Y-43936952D01*
X92882933Y-43428232D01*
X92885649Y-43400654D01*
X92891904Y-43380035D01*
X92902057Y-43361039D01*
X92915725Y-43344384D01*
X92932380Y-43330716D01*
X92951376Y-43320563D01*
X92971995Y-43314308D01*
X92999573Y-43311592D01*
X93458293Y-43311592D01*
X93485871Y-43314308D01*
X93485871Y-43314308D01*
G37*
G36*
X94455871Y-43314308D02*
G01*
X94476490Y-43320563D01*
X94495486Y-43330716D01*
X94512141Y-43344384D01*
X94525809Y-43361039D01*
X94535962Y-43380035D01*
X94542217Y-43400654D01*
X94544933Y-43428232D01*
X94544933Y-43936952D01*
X94542217Y-43964530D01*
X94535962Y-43985149D01*
X94525809Y-44004145D01*
X94512141Y-44020800D01*
X94495486Y-44034468D01*
X94476490Y-44044621D01*
X94455871Y-44050876D01*
X94428293Y-44053592D01*
X93969573Y-44053592D01*
X93941995Y-44050876D01*
X93921376Y-44044621D01*
X93902380Y-44034468D01*
X93885725Y-44020800D01*
X93872057Y-44004145D01*
X93861904Y-43985149D01*
X93855649Y-43964530D01*
X93852933Y-43936952D01*
X93852933Y-43428232D01*
X93855649Y-43400654D01*
X93861904Y-43380035D01*
X93872057Y-43361039D01*
X93885725Y-43344384D01*
X93902380Y-43330716D01*
X93921376Y-43320563D01*
X93941995Y-43314308D01*
X93969573Y-43311592D01*
X94428293Y-43311592D01*
X94455871Y-43314308D01*
X94455871Y-43314308D01*
G37*
M02*
