G04 #@! TF.GenerationSoftware,KiCad,Pcbnew,(5.1.2)-1*
G04 #@! TF.CreationDate,2019-07-06T21:55:56+02:00*
G04 #@! TF.ProjectId,BadUSB,42616455-5342-42e6-9b69-6361645f7063,rev?*
G04 #@! TF.SameCoordinates,Original*
G04 #@! TF.FileFunction,Copper,L2,Bot*
G04 #@! TF.FilePolarity,Positive*
%FSLAX46Y46*%
G04 Gerber Fmt 4.6, Leading zero omitted, Abs format (unit mm)*
G04 Created by KiCad (PCBNEW (5.1.2)-1) date 2019-07-06 21:55:56*
%MOMM*%
%LPD*%
G04 APERTURE LIST*
%ADD10C,0.100000*%
%ADD11C,0.590000*%
%ADD12R,0.650000X1.220000*%
%ADD13R,0.850000X0.850000*%
%ADD14O,0.850000X0.850000*%
%ADD15C,0.800000*%
%ADD16C,0.250000*%
%ADD17C,0.254000*%
G04 APERTURE END LIST*
D10*
G36*
X88335891Y-45713302D02*
G01*
X88350209Y-45715426D01*
X88364250Y-45718943D01*
X88377879Y-45723820D01*
X88390964Y-45730009D01*
X88403380Y-45737450D01*
X88415006Y-45746073D01*
X88425731Y-45755794D01*
X88435452Y-45766519D01*
X88444075Y-45778145D01*
X88451516Y-45790561D01*
X88457705Y-45803646D01*
X88462582Y-45817275D01*
X88466099Y-45831316D01*
X88468223Y-45845634D01*
X88468933Y-45860092D01*
X88468933Y-46155092D01*
X88468223Y-46169550D01*
X88466099Y-46183868D01*
X88462582Y-46197909D01*
X88457705Y-46211538D01*
X88451516Y-46224623D01*
X88444075Y-46237039D01*
X88435452Y-46248665D01*
X88425731Y-46259390D01*
X88415006Y-46269111D01*
X88403380Y-46277734D01*
X88390964Y-46285175D01*
X88377879Y-46291364D01*
X88364250Y-46296241D01*
X88350209Y-46299758D01*
X88335891Y-46301882D01*
X88321433Y-46302592D01*
X87976433Y-46302592D01*
X87961975Y-46301882D01*
X87947657Y-46299758D01*
X87933616Y-46296241D01*
X87919987Y-46291364D01*
X87906902Y-46285175D01*
X87894486Y-46277734D01*
X87882860Y-46269111D01*
X87872135Y-46259390D01*
X87862414Y-46248665D01*
X87853791Y-46237039D01*
X87846350Y-46224623D01*
X87840161Y-46211538D01*
X87835284Y-46197909D01*
X87831767Y-46183868D01*
X87829643Y-46169550D01*
X87828933Y-46155092D01*
X87828933Y-45860092D01*
X87829643Y-45845634D01*
X87831767Y-45831316D01*
X87835284Y-45817275D01*
X87840161Y-45803646D01*
X87846350Y-45790561D01*
X87853791Y-45778145D01*
X87862414Y-45766519D01*
X87872135Y-45755794D01*
X87882860Y-45746073D01*
X87894486Y-45737450D01*
X87906902Y-45730009D01*
X87919987Y-45723820D01*
X87933616Y-45718943D01*
X87947657Y-45715426D01*
X87961975Y-45713302D01*
X87976433Y-45712592D01*
X88321433Y-45712592D01*
X88335891Y-45713302D01*
X88335891Y-45713302D01*
G37*
D11*
X88148933Y-46007592D03*
D10*
G36*
X88335891Y-46683302D02*
G01*
X88350209Y-46685426D01*
X88364250Y-46688943D01*
X88377879Y-46693820D01*
X88390964Y-46700009D01*
X88403380Y-46707450D01*
X88415006Y-46716073D01*
X88425731Y-46725794D01*
X88435452Y-46736519D01*
X88444075Y-46748145D01*
X88451516Y-46760561D01*
X88457705Y-46773646D01*
X88462582Y-46787275D01*
X88466099Y-46801316D01*
X88468223Y-46815634D01*
X88468933Y-46830092D01*
X88468933Y-47125092D01*
X88468223Y-47139550D01*
X88466099Y-47153868D01*
X88462582Y-47167909D01*
X88457705Y-47181538D01*
X88451516Y-47194623D01*
X88444075Y-47207039D01*
X88435452Y-47218665D01*
X88425731Y-47229390D01*
X88415006Y-47239111D01*
X88403380Y-47247734D01*
X88390964Y-47255175D01*
X88377879Y-47261364D01*
X88364250Y-47266241D01*
X88350209Y-47269758D01*
X88335891Y-47271882D01*
X88321433Y-47272592D01*
X87976433Y-47272592D01*
X87961975Y-47271882D01*
X87947657Y-47269758D01*
X87933616Y-47266241D01*
X87919987Y-47261364D01*
X87906902Y-47255175D01*
X87894486Y-47247734D01*
X87882860Y-47239111D01*
X87872135Y-47229390D01*
X87862414Y-47218665D01*
X87853791Y-47207039D01*
X87846350Y-47194623D01*
X87840161Y-47181538D01*
X87835284Y-47167909D01*
X87831767Y-47153868D01*
X87829643Y-47139550D01*
X87828933Y-47125092D01*
X87828933Y-46830092D01*
X87829643Y-46815634D01*
X87831767Y-46801316D01*
X87835284Y-46787275D01*
X87840161Y-46773646D01*
X87846350Y-46760561D01*
X87853791Y-46748145D01*
X87862414Y-46736519D01*
X87872135Y-46725794D01*
X87882860Y-46716073D01*
X87894486Y-46707450D01*
X87906902Y-46700009D01*
X87919987Y-46693820D01*
X87933616Y-46688943D01*
X87947657Y-46685426D01*
X87961975Y-46683302D01*
X87976433Y-46682592D01*
X88321433Y-46682592D01*
X88335891Y-46683302D01*
X88335891Y-46683302D01*
G37*
D11*
X88148933Y-46977592D03*
D10*
G36*
X90850891Y-43363302D02*
G01*
X90865209Y-43365426D01*
X90879250Y-43368943D01*
X90892879Y-43373820D01*
X90905964Y-43380009D01*
X90918380Y-43387450D01*
X90930006Y-43396073D01*
X90940731Y-43405794D01*
X90950452Y-43416519D01*
X90959075Y-43428145D01*
X90966516Y-43440561D01*
X90972705Y-43453646D01*
X90977582Y-43467275D01*
X90981099Y-43481316D01*
X90983223Y-43495634D01*
X90983933Y-43510092D01*
X90983933Y-43855092D01*
X90983223Y-43869550D01*
X90981099Y-43883868D01*
X90977582Y-43897909D01*
X90972705Y-43911538D01*
X90966516Y-43924623D01*
X90959075Y-43937039D01*
X90950452Y-43948665D01*
X90940731Y-43959390D01*
X90930006Y-43969111D01*
X90918380Y-43977734D01*
X90905964Y-43985175D01*
X90892879Y-43991364D01*
X90879250Y-43996241D01*
X90865209Y-43999758D01*
X90850891Y-44001882D01*
X90836433Y-44002592D01*
X90541433Y-44002592D01*
X90526975Y-44001882D01*
X90512657Y-43999758D01*
X90498616Y-43996241D01*
X90484987Y-43991364D01*
X90471902Y-43985175D01*
X90459486Y-43977734D01*
X90447860Y-43969111D01*
X90437135Y-43959390D01*
X90427414Y-43948665D01*
X90418791Y-43937039D01*
X90411350Y-43924623D01*
X90405161Y-43911538D01*
X90400284Y-43897909D01*
X90396767Y-43883868D01*
X90394643Y-43869550D01*
X90393933Y-43855092D01*
X90393933Y-43510092D01*
X90394643Y-43495634D01*
X90396767Y-43481316D01*
X90400284Y-43467275D01*
X90405161Y-43453646D01*
X90411350Y-43440561D01*
X90418791Y-43428145D01*
X90427414Y-43416519D01*
X90437135Y-43405794D01*
X90447860Y-43396073D01*
X90459486Y-43387450D01*
X90471902Y-43380009D01*
X90484987Y-43373820D01*
X90498616Y-43368943D01*
X90512657Y-43365426D01*
X90526975Y-43363302D01*
X90541433Y-43362592D01*
X90836433Y-43362592D01*
X90850891Y-43363302D01*
X90850891Y-43363302D01*
G37*
D11*
X90688933Y-43682592D03*
D10*
G36*
X89880891Y-43363302D02*
G01*
X89895209Y-43365426D01*
X89909250Y-43368943D01*
X89922879Y-43373820D01*
X89935964Y-43380009D01*
X89948380Y-43387450D01*
X89960006Y-43396073D01*
X89970731Y-43405794D01*
X89980452Y-43416519D01*
X89989075Y-43428145D01*
X89996516Y-43440561D01*
X90002705Y-43453646D01*
X90007582Y-43467275D01*
X90011099Y-43481316D01*
X90013223Y-43495634D01*
X90013933Y-43510092D01*
X90013933Y-43855092D01*
X90013223Y-43869550D01*
X90011099Y-43883868D01*
X90007582Y-43897909D01*
X90002705Y-43911538D01*
X89996516Y-43924623D01*
X89989075Y-43937039D01*
X89980452Y-43948665D01*
X89970731Y-43959390D01*
X89960006Y-43969111D01*
X89948380Y-43977734D01*
X89935964Y-43985175D01*
X89922879Y-43991364D01*
X89909250Y-43996241D01*
X89895209Y-43999758D01*
X89880891Y-44001882D01*
X89866433Y-44002592D01*
X89571433Y-44002592D01*
X89556975Y-44001882D01*
X89542657Y-43999758D01*
X89528616Y-43996241D01*
X89514987Y-43991364D01*
X89501902Y-43985175D01*
X89489486Y-43977734D01*
X89477860Y-43969111D01*
X89467135Y-43959390D01*
X89457414Y-43948665D01*
X89448791Y-43937039D01*
X89441350Y-43924623D01*
X89435161Y-43911538D01*
X89430284Y-43897909D01*
X89426767Y-43883868D01*
X89424643Y-43869550D01*
X89423933Y-43855092D01*
X89423933Y-43510092D01*
X89424643Y-43495634D01*
X89426767Y-43481316D01*
X89430284Y-43467275D01*
X89435161Y-43453646D01*
X89441350Y-43440561D01*
X89448791Y-43428145D01*
X89457414Y-43416519D01*
X89467135Y-43405794D01*
X89477860Y-43396073D01*
X89489486Y-43387450D01*
X89501902Y-43380009D01*
X89514987Y-43373820D01*
X89528616Y-43368943D01*
X89542657Y-43365426D01*
X89556975Y-43363302D01*
X89571433Y-43362592D01*
X89866433Y-43362592D01*
X89880891Y-43363302D01*
X89880891Y-43363302D01*
G37*
D11*
X89718933Y-43682592D03*
D10*
G36*
X93390891Y-43363302D02*
G01*
X93405209Y-43365426D01*
X93419250Y-43368943D01*
X93432879Y-43373820D01*
X93445964Y-43380009D01*
X93458380Y-43387450D01*
X93470006Y-43396073D01*
X93480731Y-43405794D01*
X93490452Y-43416519D01*
X93499075Y-43428145D01*
X93506516Y-43440561D01*
X93512705Y-43453646D01*
X93517582Y-43467275D01*
X93521099Y-43481316D01*
X93523223Y-43495634D01*
X93523933Y-43510092D01*
X93523933Y-43855092D01*
X93523223Y-43869550D01*
X93521099Y-43883868D01*
X93517582Y-43897909D01*
X93512705Y-43911538D01*
X93506516Y-43924623D01*
X93499075Y-43937039D01*
X93490452Y-43948665D01*
X93480731Y-43959390D01*
X93470006Y-43969111D01*
X93458380Y-43977734D01*
X93445964Y-43985175D01*
X93432879Y-43991364D01*
X93419250Y-43996241D01*
X93405209Y-43999758D01*
X93390891Y-44001882D01*
X93376433Y-44002592D01*
X93081433Y-44002592D01*
X93066975Y-44001882D01*
X93052657Y-43999758D01*
X93038616Y-43996241D01*
X93024987Y-43991364D01*
X93011902Y-43985175D01*
X92999486Y-43977734D01*
X92987860Y-43969111D01*
X92977135Y-43959390D01*
X92967414Y-43948665D01*
X92958791Y-43937039D01*
X92951350Y-43924623D01*
X92945161Y-43911538D01*
X92940284Y-43897909D01*
X92936767Y-43883868D01*
X92934643Y-43869550D01*
X92933933Y-43855092D01*
X92933933Y-43510092D01*
X92934643Y-43495634D01*
X92936767Y-43481316D01*
X92940284Y-43467275D01*
X92945161Y-43453646D01*
X92951350Y-43440561D01*
X92958791Y-43428145D01*
X92967414Y-43416519D01*
X92977135Y-43405794D01*
X92987860Y-43396073D01*
X92999486Y-43387450D01*
X93011902Y-43380009D01*
X93024987Y-43373820D01*
X93038616Y-43368943D01*
X93052657Y-43365426D01*
X93066975Y-43363302D01*
X93081433Y-43362592D01*
X93376433Y-43362592D01*
X93390891Y-43363302D01*
X93390891Y-43363302D01*
G37*
D11*
X93228933Y-43682592D03*
D10*
G36*
X94360891Y-43363302D02*
G01*
X94375209Y-43365426D01*
X94389250Y-43368943D01*
X94402879Y-43373820D01*
X94415964Y-43380009D01*
X94428380Y-43387450D01*
X94440006Y-43396073D01*
X94450731Y-43405794D01*
X94460452Y-43416519D01*
X94469075Y-43428145D01*
X94476516Y-43440561D01*
X94482705Y-43453646D01*
X94487582Y-43467275D01*
X94491099Y-43481316D01*
X94493223Y-43495634D01*
X94493933Y-43510092D01*
X94493933Y-43855092D01*
X94493223Y-43869550D01*
X94491099Y-43883868D01*
X94487582Y-43897909D01*
X94482705Y-43911538D01*
X94476516Y-43924623D01*
X94469075Y-43937039D01*
X94460452Y-43948665D01*
X94450731Y-43959390D01*
X94440006Y-43969111D01*
X94428380Y-43977734D01*
X94415964Y-43985175D01*
X94402879Y-43991364D01*
X94389250Y-43996241D01*
X94375209Y-43999758D01*
X94360891Y-44001882D01*
X94346433Y-44002592D01*
X94051433Y-44002592D01*
X94036975Y-44001882D01*
X94022657Y-43999758D01*
X94008616Y-43996241D01*
X93994987Y-43991364D01*
X93981902Y-43985175D01*
X93969486Y-43977734D01*
X93957860Y-43969111D01*
X93947135Y-43959390D01*
X93937414Y-43948665D01*
X93928791Y-43937039D01*
X93921350Y-43924623D01*
X93915161Y-43911538D01*
X93910284Y-43897909D01*
X93906767Y-43883868D01*
X93904643Y-43869550D01*
X93903933Y-43855092D01*
X93903933Y-43510092D01*
X93904643Y-43495634D01*
X93906767Y-43481316D01*
X93910284Y-43467275D01*
X93915161Y-43453646D01*
X93921350Y-43440561D01*
X93928791Y-43428145D01*
X93937414Y-43416519D01*
X93947135Y-43405794D01*
X93957860Y-43396073D01*
X93969486Y-43387450D01*
X93981902Y-43380009D01*
X93994987Y-43373820D01*
X94008616Y-43368943D01*
X94022657Y-43365426D01*
X94036975Y-43363302D01*
X94051433Y-43362592D01*
X94346433Y-43362592D01*
X94360891Y-43363302D01*
X94360891Y-43363302D01*
G37*
D11*
X94198933Y-43682592D03*
D12*
X91008933Y-45182592D03*
X92908933Y-45182592D03*
X91958933Y-47802592D03*
D13*
X98000000Y-44000000D03*
D14*
X98000000Y-45000000D03*
X98000000Y-46000000D03*
X98000000Y-47000000D03*
D15*
X89755083Y-48210598D03*
X94822468Y-43682592D03*
X89750739Y-46977592D03*
X89642378Y-45145802D03*
D16*
X90433933Y-46042592D02*
X91008933Y-45467592D01*
X90218933Y-46042592D02*
X90433933Y-46042592D01*
X90183933Y-46007592D02*
X90218933Y-46042592D01*
X88148933Y-46007592D02*
X90183933Y-46007592D01*
X98000000Y-46000000D02*
X97089210Y-46000000D01*
X97089210Y-46000000D02*
X96671668Y-46417542D01*
X96671668Y-46417542D02*
X92317372Y-46417542D01*
X91008933Y-45467592D02*
X91008933Y-45182592D01*
X91958883Y-46417542D02*
X91008933Y-45467592D01*
X92317372Y-46417542D02*
X91958883Y-46417542D01*
X98308933Y-45000000D02*
X93678933Y-45000000D01*
X92908933Y-44002592D02*
X93228933Y-43682592D01*
X92908933Y-45182592D02*
X92908933Y-44002592D01*
X93228933Y-43682592D02*
X90688933Y-43682592D01*
X93091525Y-45000000D02*
X92908933Y-45182592D01*
X98000000Y-45000000D02*
X93091525Y-45000000D01*
X92108933Y-47952592D02*
X91958933Y-47802592D01*
X91958933Y-48087592D02*
X91798090Y-48248435D01*
X91958933Y-47802592D02*
X91958933Y-48087592D01*
X91958933Y-47802592D02*
X90200926Y-47802592D01*
X90200926Y-47802592D02*
X89932193Y-48071325D01*
X89932193Y-48071325D02*
X89894356Y-48071325D01*
X89894356Y-48071325D02*
X89755083Y-48210598D01*
X94198933Y-43682592D02*
X94822468Y-43682592D01*
X88148933Y-46977592D02*
X89750739Y-46977592D01*
X89642378Y-43759147D02*
X89718933Y-43682592D01*
X89642378Y-45145802D02*
X89642378Y-43759147D01*
D17*
G36*
X91196588Y-46730049D02*
G01*
X91182748Y-46741407D01*
X91103396Y-46838098D01*
X91044431Y-46948412D01*
X91008121Y-47068110D01*
X90995861Y-47192592D01*
X90998933Y-47516842D01*
X91157683Y-47675592D01*
X91831933Y-47675592D01*
X91831933Y-47655592D01*
X92085933Y-47655592D01*
X92085933Y-47675592D01*
X92760183Y-47675592D01*
X92918933Y-47516842D01*
X92922005Y-47192592D01*
X92920523Y-47177542D01*
X96634346Y-47177542D01*
X96671668Y-47181218D01*
X96708990Y-47177542D01*
X96709001Y-47177542D01*
X96820654Y-47166545D01*
X96951012Y-47127002D01*
X97107741Y-47127002D01*
X96980460Y-47290062D01*
X96991128Y-47325250D01*
X97073966Y-47515822D01*
X97192391Y-47686571D01*
X97341852Y-47830936D01*
X97516606Y-47943368D01*
X97709936Y-48019547D01*
X97873000Y-47893621D01*
X97873000Y-47127000D01*
X97853000Y-47127000D01*
X97853000Y-47050650D01*
X97947934Y-47060000D01*
X98052066Y-47060000D01*
X98147000Y-47050650D01*
X98147000Y-47127000D01*
X98127000Y-47127000D01*
X98127000Y-47893621D01*
X98290064Y-48019547D01*
X98340000Y-47999870D01*
X98340000Y-48340000D01*
X92921317Y-48340000D01*
X92918933Y-48088342D01*
X92760183Y-47929592D01*
X92085933Y-47929592D01*
X92085933Y-47949592D01*
X91831933Y-47949592D01*
X91831933Y-47929592D01*
X91157683Y-47929592D01*
X90998933Y-48088342D01*
X90996549Y-48340000D01*
X87660000Y-48340000D01*
X87660000Y-47842416D01*
X87675808Y-47850866D01*
X87823176Y-47895569D01*
X87976433Y-47910664D01*
X88321433Y-47910664D01*
X88474690Y-47895569D01*
X88622058Y-47850866D01*
X88757873Y-47778271D01*
X88807441Y-47737592D01*
X89047028Y-47737592D01*
X89090965Y-47781529D01*
X89260483Y-47894797D01*
X89448841Y-47972818D01*
X89648800Y-48012592D01*
X89852678Y-48012592D01*
X90052637Y-47972818D01*
X90240995Y-47894797D01*
X90410513Y-47781529D01*
X90554676Y-47637366D01*
X90667944Y-47467848D01*
X90745965Y-47279490D01*
X90785739Y-47079531D01*
X90785739Y-46875653D01*
X90757089Y-46731617D01*
X90858209Y-46677566D01*
X90973934Y-46582593D01*
X90997736Y-46553590D01*
X91008933Y-46542393D01*
X91196588Y-46730049D01*
X91196588Y-46730049D01*
G37*
X91196588Y-46730049D02*
X91182748Y-46741407D01*
X91103396Y-46838098D01*
X91044431Y-46948412D01*
X91008121Y-47068110D01*
X90995861Y-47192592D01*
X90998933Y-47516842D01*
X91157683Y-47675592D01*
X91831933Y-47675592D01*
X91831933Y-47655592D01*
X92085933Y-47655592D01*
X92085933Y-47675592D01*
X92760183Y-47675592D01*
X92918933Y-47516842D01*
X92922005Y-47192592D01*
X92920523Y-47177542D01*
X96634346Y-47177542D01*
X96671668Y-47181218D01*
X96708990Y-47177542D01*
X96709001Y-47177542D01*
X96820654Y-47166545D01*
X96951012Y-47127002D01*
X97107741Y-47127002D01*
X96980460Y-47290062D01*
X96991128Y-47325250D01*
X97073966Y-47515822D01*
X97192391Y-47686571D01*
X97341852Y-47830936D01*
X97516606Y-47943368D01*
X97709936Y-48019547D01*
X97873000Y-47893621D01*
X97873000Y-47127000D01*
X97853000Y-47127000D01*
X97853000Y-47050650D01*
X97947934Y-47060000D01*
X98052066Y-47060000D01*
X98147000Y-47050650D01*
X98147000Y-47127000D01*
X98127000Y-47127000D01*
X98127000Y-47893621D01*
X98290064Y-48019547D01*
X98340000Y-47999870D01*
X98340000Y-48340000D01*
X92921317Y-48340000D01*
X92918933Y-48088342D01*
X92760183Y-47929592D01*
X92085933Y-47929592D01*
X92085933Y-47949592D01*
X91831933Y-47949592D01*
X91831933Y-47929592D01*
X91157683Y-47929592D01*
X90998933Y-48088342D01*
X90996549Y-48340000D01*
X87660000Y-48340000D01*
X87660000Y-47842416D01*
X87675808Y-47850866D01*
X87823176Y-47895569D01*
X87976433Y-47910664D01*
X88321433Y-47910664D01*
X88474690Y-47895569D01*
X88622058Y-47850866D01*
X88757873Y-47778271D01*
X88807441Y-47737592D01*
X89047028Y-47737592D01*
X89090965Y-47781529D01*
X89260483Y-47894797D01*
X89448841Y-47972818D01*
X89648800Y-48012592D01*
X89852678Y-48012592D01*
X90052637Y-47972818D01*
X90240995Y-47894797D01*
X90410513Y-47781529D01*
X90554676Y-47637366D01*
X90667944Y-47467848D01*
X90745965Y-47279490D01*
X90785739Y-47079531D01*
X90785739Y-46875653D01*
X90757089Y-46731617D01*
X90858209Y-46677566D01*
X90973934Y-46582593D01*
X90997736Y-46553590D01*
X91008933Y-46542393D01*
X91196588Y-46730049D01*
M02*
