G04 #@! TF.GenerationSoftware,KiCad,Pcbnew,(5.1.2)-1*
G04 #@! TF.CreationDate,2019-07-06T21:55:56+02:00*
G04 #@! TF.ProjectId,BadUSB,42616455-5342-42e6-9b69-6361645f7063,rev?*
G04 #@! TF.SameCoordinates,Original*
G04 #@! TF.FileFunction,Copper,L1,Top*
G04 #@! TF.FilePolarity,Positive*
%FSLAX46Y46*%
G04 Gerber Fmt 4.6, Leading zero omitted, Abs format (unit mm)*
G04 Created by KiCad (PCBNEW (5.1.2)-1) date 2019-07-06 21:55:56*
%MOMM*%
%LPD*%
G04 APERTURE LIST*
%ADD10R,0.850000X0.850000*%
%ADD11O,0.850000X0.850000*%
%ADD12R,1.700000X0.650000*%
%ADD13C,0.800000*%
%ADD14C,0.250000*%
%ADD15C,0.254000*%
G04 APERTURE END LIST*
D10*
X98000000Y-44000000D03*
D11*
X98000000Y-45000000D03*
X98000000Y-46000000D03*
X98000000Y-47000000D03*
D12*
X88308933Y-44317592D03*
X88308933Y-45587592D03*
X88308933Y-46857592D03*
X88308933Y-48127592D03*
X95608933Y-48127592D03*
X95608933Y-46857592D03*
X95608933Y-45587592D03*
X95608933Y-44317592D03*
D13*
X89755083Y-48210598D03*
X94822468Y-43682592D03*
X89750739Y-46977592D03*
X89642378Y-45145802D03*
D14*
X98308933Y-44952592D02*
X97633933Y-44952592D01*
X88391939Y-48210598D02*
X88308933Y-48127592D01*
X89755083Y-48210598D02*
X88391939Y-48210598D01*
X95768933Y-44157592D02*
X95608933Y-44317592D01*
X95457468Y-44317592D02*
X94822468Y-43682592D01*
X95608933Y-44317592D02*
X95457468Y-44317592D01*
X96708933Y-44317592D02*
X95608933Y-44317592D01*
X97026525Y-44000000D02*
X96708933Y-44317592D01*
X98000000Y-44000000D02*
X97026525Y-44000000D01*
X89630739Y-46857592D02*
X89750739Y-46977592D01*
X88308933Y-46857592D02*
X89630739Y-46857592D01*
X88833933Y-45587592D02*
X88308933Y-45587592D01*
X88833933Y-45587592D02*
X89398895Y-45022630D01*
X89398895Y-45022630D02*
X89519206Y-45022630D01*
X89519206Y-45022630D02*
X89642378Y-45145802D01*
D15*
G36*
X93787468Y-43784531D02*
G01*
X93827242Y-43984490D01*
X93905263Y-44172848D01*
X94018531Y-44342366D01*
X94120861Y-44444696D01*
X94120861Y-44642592D01*
X94133121Y-44767074D01*
X94169431Y-44886772D01*
X94204613Y-44952592D01*
X94169431Y-45018412D01*
X94133121Y-45138110D01*
X94120861Y-45262592D01*
X94120861Y-45912592D01*
X94133121Y-46037074D01*
X94169431Y-46156772D01*
X94204613Y-46222592D01*
X94169431Y-46288412D01*
X94133121Y-46408110D01*
X94120861Y-46532592D01*
X94120861Y-47182592D01*
X94133121Y-47307074D01*
X94169431Y-47426772D01*
X94204613Y-47492592D01*
X94169431Y-47558412D01*
X94133121Y-47678110D01*
X94120861Y-47802592D01*
X94120861Y-48340000D01*
X89720591Y-48340000D01*
X89635183Y-48254592D01*
X88435933Y-48254592D01*
X88435933Y-48274592D01*
X88181933Y-48274592D01*
X88181933Y-48254592D01*
X88161933Y-48254592D01*
X88161933Y-48000592D01*
X88181933Y-48000592D01*
X88181933Y-47980592D01*
X88435933Y-47980592D01*
X88435933Y-48000592D01*
X89588471Y-48000592D01*
X89648800Y-48012592D01*
X89852678Y-48012592D01*
X90052637Y-47972818D01*
X90240995Y-47894797D01*
X90410513Y-47781529D01*
X90554676Y-47637366D01*
X90667944Y-47467848D01*
X90745965Y-47279490D01*
X90785739Y-47079531D01*
X90785739Y-46875653D01*
X90745965Y-46675694D01*
X90667944Y-46487336D01*
X90554676Y-46317818D01*
X90410513Y-46173655D01*
X90240995Y-46060387D01*
X90176523Y-46033682D01*
X90302152Y-45949739D01*
X90446315Y-45805576D01*
X90559583Y-45636058D01*
X90637604Y-45447700D01*
X90677378Y-45247741D01*
X90677378Y-45043863D01*
X90637604Y-44843904D01*
X90559583Y-44655546D01*
X90446315Y-44486028D01*
X90302152Y-44341865D01*
X90132634Y-44228597D01*
X89944276Y-44150576D01*
X89797005Y-44121282D01*
X89797005Y-43992592D01*
X89784745Y-43868110D01*
X89748435Y-43748412D01*
X89701177Y-43660000D01*
X93787468Y-43660000D01*
X93787468Y-43784531D01*
X93787468Y-43784531D01*
G37*
X93787468Y-43784531D02*
X93827242Y-43984490D01*
X93905263Y-44172848D01*
X94018531Y-44342366D01*
X94120861Y-44444696D01*
X94120861Y-44642592D01*
X94133121Y-44767074D01*
X94169431Y-44886772D01*
X94204613Y-44952592D01*
X94169431Y-45018412D01*
X94133121Y-45138110D01*
X94120861Y-45262592D01*
X94120861Y-45912592D01*
X94133121Y-46037074D01*
X94169431Y-46156772D01*
X94204613Y-46222592D01*
X94169431Y-46288412D01*
X94133121Y-46408110D01*
X94120861Y-46532592D01*
X94120861Y-47182592D01*
X94133121Y-47307074D01*
X94169431Y-47426772D01*
X94204613Y-47492592D01*
X94169431Y-47558412D01*
X94133121Y-47678110D01*
X94120861Y-47802592D01*
X94120861Y-48340000D01*
X89720591Y-48340000D01*
X89635183Y-48254592D01*
X88435933Y-48254592D01*
X88435933Y-48274592D01*
X88181933Y-48274592D01*
X88181933Y-48254592D01*
X88161933Y-48254592D01*
X88161933Y-48000592D01*
X88181933Y-48000592D01*
X88181933Y-47980592D01*
X88435933Y-47980592D01*
X88435933Y-48000592D01*
X89588471Y-48000592D01*
X89648800Y-48012592D01*
X89852678Y-48012592D01*
X90052637Y-47972818D01*
X90240995Y-47894797D01*
X90410513Y-47781529D01*
X90554676Y-47637366D01*
X90667944Y-47467848D01*
X90745965Y-47279490D01*
X90785739Y-47079531D01*
X90785739Y-46875653D01*
X90745965Y-46675694D01*
X90667944Y-46487336D01*
X90554676Y-46317818D01*
X90410513Y-46173655D01*
X90240995Y-46060387D01*
X90176523Y-46033682D01*
X90302152Y-45949739D01*
X90446315Y-45805576D01*
X90559583Y-45636058D01*
X90637604Y-45447700D01*
X90677378Y-45247741D01*
X90677378Y-45043863D01*
X90637604Y-44843904D01*
X90559583Y-44655546D01*
X90446315Y-44486028D01*
X90302152Y-44341865D01*
X90132634Y-44228597D01*
X89944276Y-44150576D01*
X89797005Y-44121282D01*
X89797005Y-43992592D01*
X89784745Y-43868110D01*
X89748435Y-43748412D01*
X89701177Y-43660000D01*
X93787468Y-43660000D01*
X93787468Y-43784531D01*
G36*
X98147000Y-47127000D02*
G01*
X98127000Y-47127000D01*
X98127000Y-47893621D01*
X98290064Y-48019547D01*
X98340000Y-47999870D01*
X98340000Y-48340000D01*
X97097005Y-48340000D01*
X97097005Y-47802592D01*
X97084745Y-47678110D01*
X97048435Y-47558412D01*
X97013253Y-47492592D01*
X97041168Y-47440368D01*
X97073966Y-47515822D01*
X97192391Y-47686571D01*
X97341852Y-47830936D01*
X97516606Y-47943368D01*
X97709936Y-48019547D01*
X97873000Y-47893621D01*
X97873000Y-47127000D01*
X97853000Y-47127000D01*
X97853000Y-47050650D01*
X97947934Y-47060000D01*
X98052066Y-47060000D01*
X98147000Y-47050650D01*
X98147000Y-47127000D01*
X98147000Y-47127000D01*
G37*
X98147000Y-47127000D02*
X98127000Y-47127000D01*
X98127000Y-47893621D01*
X98290064Y-48019547D01*
X98340000Y-47999870D01*
X98340000Y-48340000D01*
X97097005Y-48340000D01*
X97097005Y-47802592D01*
X97084745Y-47678110D01*
X97048435Y-47558412D01*
X97013253Y-47492592D01*
X97041168Y-47440368D01*
X97073966Y-47515822D01*
X97192391Y-47686571D01*
X97341852Y-47830936D01*
X97516606Y-47943368D01*
X97709936Y-48019547D01*
X97873000Y-47893621D01*
X97873000Y-47127000D01*
X97853000Y-47127000D01*
X97853000Y-47050650D01*
X97947934Y-47060000D01*
X98052066Y-47060000D01*
X98147000Y-47050650D01*
X98147000Y-47127000D01*
M02*
