G04 #@! TF.GenerationSoftware,KiCad,Pcbnew,(5.1.2)-2*
G04 #@! TF.CreationDate,2019-09-06T22:24:02+02:00*
G04 #@! TF.ProjectId,BadUSB,42616455-5342-42e6-9b69-6361645f7063,rev?*
G04 #@! TF.SameCoordinates,Original*
G04 #@! TF.FileFunction,Legend,Top*
G04 #@! TF.FilePolarity,Positive*
%FSLAX46Y46*%
G04 Gerber Fmt 4.6, Leading zero omitted, Abs format (unit mm)*
G04 Created by KiCad (PCBNEW (5.1.2)-2) date 2019-09-06 22:24:02*
%MOMM*%
%LPD*%
G04 APERTURE LIST*
%ADD10C,0.150000*%
%ADD11C,0.120000*%
G04 APERTURE END LIST*
D10*
X106242380Y-61576428D02*
X106242380Y-62147857D01*
X106242380Y-61862142D02*
X105242380Y-61862142D01*
X105385238Y-61957380D01*
X105480476Y-62052619D01*
X105528095Y-62147857D01*
X105242380Y-60957380D02*
X105242380Y-60862142D01*
X105290000Y-60766904D01*
X105337619Y-60719285D01*
X105432857Y-60671666D01*
X105623333Y-60624047D01*
X105861428Y-60624047D01*
X106051904Y-60671666D01*
X106147142Y-60719285D01*
X106194761Y-60766904D01*
X106242380Y-60862142D01*
X106242380Y-60957380D01*
X106194761Y-61052619D01*
X106147142Y-61100238D01*
X106051904Y-61147857D01*
X105861428Y-61195476D01*
X105623333Y-61195476D01*
X105432857Y-61147857D01*
X105337619Y-61100238D01*
X105290000Y-61052619D01*
X105242380Y-60957380D01*
X106194761Y-60147857D02*
X106242380Y-60147857D01*
X106337619Y-60195476D01*
X106385238Y-60243095D01*
X105242380Y-59528809D02*
X105242380Y-59433571D01*
X105290000Y-59338333D01*
X105337619Y-59290714D01*
X105432857Y-59243095D01*
X105623333Y-59195476D01*
X105861428Y-59195476D01*
X106051904Y-59243095D01*
X106147142Y-59290714D01*
X106194761Y-59338333D01*
X106242380Y-59433571D01*
X106242380Y-59528809D01*
X106194761Y-59624047D01*
X106147142Y-59671666D01*
X106051904Y-59719285D01*
X105861428Y-59766904D01*
X105623333Y-59766904D01*
X105432857Y-59719285D01*
X105337619Y-59671666D01*
X105290000Y-59624047D01*
X105242380Y-59528809D01*
X106242380Y-58243095D02*
X106242380Y-58814523D01*
X106242380Y-58528809D02*
X105242380Y-58528809D01*
X105385238Y-58624047D01*
X105480476Y-58719285D01*
X105528095Y-58814523D01*
X105242380Y-57624047D02*
X105242380Y-57528809D01*
X105290000Y-57433571D01*
X105337619Y-57385952D01*
X105432857Y-57338333D01*
X105623333Y-57290714D01*
X105861428Y-57290714D01*
X106051904Y-57338333D01*
X106147142Y-57385952D01*
X106194761Y-57433571D01*
X106242380Y-57528809D01*
X106242380Y-57624047D01*
X106194761Y-57719285D01*
X106147142Y-57766904D01*
X106051904Y-57814523D01*
X105861428Y-57862142D01*
X105623333Y-57862142D01*
X105432857Y-57814523D01*
X105337619Y-57766904D01*
X105290000Y-57719285D01*
X105242380Y-57624047D01*
X106242380Y-56100238D02*
X105575714Y-56100238D01*
X105670952Y-56100238D02*
X105623333Y-56052619D01*
X105575714Y-55957380D01*
X105575714Y-55814523D01*
X105623333Y-55719285D01*
X105718571Y-55671666D01*
X106242380Y-55671666D01*
X105718571Y-55671666D02*
X105623333Y-55624047D01*
X105575714Y-55528809D01*
X105575714Y-55385952D01*
X105623333Y-55290714D01*
X105718571Y-55243095D01*
X106242380Y-55243095D01*
X106242380Y-54766904D02*
X105575714Y-54766904D01*
X105670952Y-54766904D02*
X105623333Y-54719285D01*
X105575714Y-54624047D01*
X105575714Y-54481190D01*
X105623333Y-54385952D01*
X105718571Y-54338333D01*
X106242380Y-54338333D01*
X105718571Y-54338333D02*
X105623333Y-54290714D01*
X105575714Y-54195476D01*
X105575714Y-54052619D01*
X105623333Y-53957380D01*
X105718571Y-53909761D01*
X106242380Y-53909761D01*
D11*
X104520000Y-63010000D02*
X104520000Y-53000000D01*
X97100000Y-63010000D02*
X105106421Y-63010000D01*
X97100000Y-53000000D02*
X105106421Y-53000000D01*
X104520000Y-53000000D02*
X105106421Y-54126504D01*
X104520000Y-53000000D02*
X103933579Y-54126504D01*
X104520000Y-63010000D02*
X105106421Y-61883496D01*
X104520000Y-63010000D02*
X103933579Y-61883496D01*
D10*
X99773571Y-60174285D02*
X99821190Y-60031428D01*
X99868809Y-59983809D01*
X99964047Y-59936190D01*
X100106904Y-59936190D01*
X100202142Y-59983809D01*
X100249761Y-60031428D01*
X100297380Y-60126666D01*
X100297380Y-60507619D01*
X99297380Y-60507619D01*
X99297380Y-60174285D01*
X99345000Y-60079047D01*
X99392619Y-60031428D01*
X99487857Y-59983809D01*
X99583095Y-59983809D01*
X99678333Y-60031428D01*
X99725952Y-60079047D01*
X99773571Y-60174285D01*
X99773571Y-60507619D01*
X100297380Y-59079047D02*
X99773571Y-59079047D01*
X99678333Y-59126666D01*
X99630714Y-59221904D01*
X99630714Y-59412380D01*
X99678333Y-59507619D01*
X100249761Y-59079047D02*
X100297380Y-59174285D01*
X100297380Y-59412380D01*
X100249761Y-59507619D01*
X100154523Y-59555238D01*
X100059285Y-59555238D01*
X99964047Y-59507619D01*
X99916428Y-59412380D01*
X99916428Y-59174285D01*
X99868809Y-59079047D01*
X100297380Y-58174285D02*
X99297380Y-58174285D01*
X100249761Y-58174285D02*
X100297380Y-58269523D01*
X100297380Y-58460000D01*
X100249761Y-58555238D01*
X100202142Y-58602857D01*
X100106904Y-58650476D01*
X99821190Y-58650476D01*
X99725952Y-58602857D01*
X99678333Y-58555238D01*
X99630714Y-58460000D01*
X99630714Y-58269523D01*
X99678333Y-58174285D01*
X99297380Y-57698095D02*
X100106904Y-57698095D01*
X100202142Y-57650476D01*
X100249761Y-57602857D01*
X100297380Y-57507619D01*
X100297380Y-57317142D01*
X100249761Y-57221904D01*
X100202142Y-57174285D01*
X100106904Y-57126666D01*
X99297380Y-57126666D01*
X100249761Y-56698095D02*
X100297380Y-56602857D01*
X100297380Y-56412380D01*
X100249761Y-56317142D01*
X100154523Y-56269523D01*
X100106904Y-56269523D01*
X100011666Y-56317142D01*
X99964047Y-56412380D01*
X99964047Y-56555238D01*
X99916428Y-56650476D01*
X99821190Y-56698095D01*
X99773571Y-56698095D01*
X99678333Y-56650476D01*
X99630714Y-56555238D01*
X99630714Y-56412380D01*
X99678333Y-56317142D01*
X100297380Y-55840952D02*
X99297380Y-55840952D01*
X99678333Y-55840952D02*
X99630714Y-55745714D01*
X99630714Y-55555238D01*
X99678333Y-55460000D01*
X99725952Y-55412380D01*
X99821190Y-55364761D01*
X100106904Y-55364761D01*
X100202142Y-55412380D01*
X100249761Y-55460000D01*
X100297380Y-55555238D01*
X100297380Y-55745714D01*
X100249761Y-55840952D01*
X100947380Y-58388571D02*
X101947380Y-58055238D01*
X100947380Y-57721904D01*
X100947380Y-57483809D02*
X100947380Y-56864761D01*
X101328333Y-57198095D01*
X101328333Y-57055238D01*
X101375952Y-56960000D01*
X101423571Y-56912380D01*
X101518809Y-56864761D01*
X101756904Y-56864761D01*
X101852142Y-56912380D01*
X101899761Y-56960000D01*
X101947380Y-57055238D01*
X101947380Y-57340952D01*
X101899761Y-57436190D01*
X101852142Y-57483809D01*
D11*
X97115000Y-55815000D02*
X97810000Y-55815000D01*
X97115000Y-56500000D02*
X97115000Y-55815000D01*
X98418276Y-57185000D02*
X98505000Y-57185000D01*
X97115000Y-57185000D02*
X97201724Y-57185000D01*
X98505000Y-57185000D02*
X98505000Y-60060000D01*
X97115000Y-57185000D02*
X97115000Y-60060000D01*
X98204493Y-60060000D02*
X98505000Y-60060000D01*
X97115000Y-60060000D02*
X97415507Y-60060000D01*
D10*
X96302408Y-55348933D02*
X96097408Y-55348933D01*
X96302408Y-60848933D02*
X96002408Y-60848933D01*
X90792408Y-60848933D02*
X91092408Y-60848933D01*
X90792408Y-55348933D02*
X91092408Y-55348933D01*
X96302408Y-55348933D02*
X96302408Y-60848933D01*
X90792408Y-55348933D02*
X90792408Y-60848933D01*
X96097408Y-55348933D02*
X96097408Y-53598933D01*
M02*
