G04 #@! TF.GenerationSoftware,KiCad,Pcbnew,(5.1.2)-2*
G04 #@! TF.CreationDate,2019-09-06T22:24:02+02:00*
G04 #@! TF.ProjectId,BadUSB,42616455-5342-42e6-9b69-6361645f7063,rev?*
G04 #@! TF.SameCoordinates,Original*
G04 #@! TF.FileFunction,Soldermask,Top*
G04 #@! TF.FilePolarity,Negative*
%FSLAX46Y46*%
G04 Gerber Fmt 4.6, Leading zero omitted, Abs format (unit mm)*
G04 Created by KiCad (PCBNEW (5.1.2)-2) date 2019-09-06 22:24:02*
%MOMM*%
%LPD*%
G04 APERTURE LIST*
%ADD10C,0.100000*%
G04 APERTURE END LIST*
D10*
G36*
X94558408Y-62649933D02*
G01*
X93806408Y-62649933D01*
X93806408Y-60847933D01*
X94558408Y-60847933D01*
X94558408Y-62649933D01*
X94558408Y-62649933D01*
G37*
G36*
X95828408Y-62649933D02*
G01*
X95076408Y-62649933D01*
X95076408Y-60847933D01*
X95828408Y-60847933D01*
X95828408Y-62649933D01*
X95828408Y-62649933D01*
G37*
G36*
X93288408Y-62649933D02*
G01*
X92536408Y-62649933D01*
X92536408Y-60847933D01*
X93288408Y-60847933D01*
X93288408Y-62649933D01*
X93288408Y-62649933D01*
G37*
G36*
X92018408Y-62649933D02*
G01*
X91266408Y-62649933D01*
X91266408Y-60847933D01*
X92018408Y-60847933D01*
X92018408Y-62649933D01*
X92018408Y-62649933D01*
G37*
G36*
X89460015Y-61016973D02*
G01*
X89563879Y-61048479D01*
X89591055Y-61063005D01*
X89659600Y-61099643D01*
X89743501Y-61168499D01*
X89812357Y-61252400D01*
X89848995Y-61320945D01*
X89863521Y-61348121D01*
X89895027Y-61451985D01*
X89905666Y-61560000D01*
X89895027Y-61668015D01*
X89863521Y-61771879D01*
X89863519Y-61771882D01*
X89812357Y-61867600D01*
X89743501Y-61951501D01*
X89659600Y-62020357D01*
X89591055Y-62056995D01*
X89563879Y-62071521D01*
X89460015Y-62103027D01*
X89379067Y-62111000D01*
X87800933Y-62111000D01*
X87719985Y-62103027D01*
X87616121Y-62071521D01*
X87588945Y-62056995D01*
X87520400Y-62020357D01*
X87436499Y-61951501D01*
X87367643Y-61867600D01*
X87316481Y-61771882D01*
X87316479Y-61771879D01*
X87284973Y-61668015D01*
X87274334Y-61560000D01*
X87284973Y-61451985D01*
X87316479Y-61348121D01*
X87331005Y-61320945D01*
X87367643Y-61252400D01*
X87436499Y-61168499D01*
X87520400Y-61099643D01*
X87588945Y-61063005D01*
X87616121Y-61048479D01*
X87719985Y-61016973D01*
X87800933Y-61009000D01*
X89379067Y-61009000D01*
X89460015Y-61016973D01*
X89460015Y-61016973D01*
G37*
G36*
X98286000Y-56976000D02*
G01*
X98260025Y-56976000D01*
X98235639Y-56978402D01*
X98212190Y-56985515D01*
X98190579Y-56997066D01*
X98171637Y-57012611D01*
X98156092Y-57031553D01*
X98144541Y-57053164D01*
X98137428Y-57076613D01*
X98135026Y-57100999D01*
X98137428Y-57125385D01*
X98144541Y-57148834D01*
X98163396Y-57180292D01*
X98207694Y-57234269D01*
X98251894Y-57316961D01*
X98279113Y-57406688D01*
X98288303Y-57500000D01*
X98279113Y-57593312D01*
X98251894Y-57683039D01*
X98207694Y-57765731D01*
X98148211Y-57838211D01*
X98075731Y-57897694D01*
X98075726Y-57897697D01*
X98068808Y-57903374D01*
X98051481Y-57920701D01*
X98037867Y-57941075D01*
X98028490Y-57963714D01*
X98023709Y-57987747D01*
X98023709Y-58012251D01*
X98028489Y-58036285D01*
X98037866Y-58058924D01*
X98051480Y-58079298D01*
X98068808Y-58096626D01*
X98075726Y-58102303D01*
X98075731Y-58102306D01*
X98148211Y-58161789D01*
X98207694Y-58234269D01*
X98251894Y-58316961D01*
X98279113Y-58406688D01*
X98288303Y-58500000D01*
X98279113Y-58593312D01*
X98251894Y-58683039D01*
X98207694Y-58765731D01*
X98148211Y-58838211D01*
X98075731Y-58897694D01*
X98075726Y-58897697D01*
X98068808Y-58903374D01*
X98051481Y-58920701D01*
X98037867Y-58941075D01*
X98028490Y-58963714D01*
X98023709Y-58987747D01*
X98023709Y-59012251D01*
X98028489Y-59036285D01*
X98037866Y-59058924D01*
X98051480Y-59079298D01*
X98068808Y-59096626D01*
X98075726Y-59102303D01*
X98075731Y-59102306D01*
X98148211Y-59161789D01*
X98207694Y-59234269D01*
X98251894Y-59316961D01*
X98279113Y-59406688D01*
X98288303Y-59500000D01*
X98279113Y-59593312D01*
X98251894Y-59683039D01*
X98207694Y-59765731D01*
X98148211Y-59838211D01*
X98075731Y-59897694D01*
X97993039Y-59941894D01*
X97903312Y-59969113D01*
X97833384Y-59976000D01*
X97786616Y-59976000D01*
X97716688Y-59969113D01*
X97626961Y-59941894D01*
X97544269Y-59897694D01*
X97471789Y-59838211D01*
X97412306Y-59765731D01*
X97368106Y-59683039D01*
X97340887Y-59593312D01*
X97331697Y-59500000D01*
X97340887Y-59406688D01*
X97368106Y-59316961D01*
X97412306Y-59234269D01*
X97471789Y-59161789D01*
X97544269Y-59102306D01*
X97544274Y-59102303D01*
X97551192Y-59096626D01*
X97568519Y-59079299D01*
X97582133Y-59058925D01*
X97591510Y-59036286D01*
X97596291Y-59012253D01*
X97596291Y-58987749D01*
X97591511Y-58963715D01*
X97582134Y-58941076D01*
X97568520Y-58920702D01*
X97551192Y-58903374D01*
X97544274Y-58897697D01*
X97544269Y-58897694D01*
X97471789Y-58838211D01*
X97412306Y-58765731D01*
X97368106Y-58683039D01*
X97340887Y-58593312D01*
X97331697Y-58500000D01*
X97340887Y-58406688D01*
X97368106Y-58316961D01*
X97412306Y-58234269D01*
X97471789Y-58161789D01*
X97544269Y-58102306D01*
X97544274Y-58102303D01*
X97551192Y-58096626D01*
X97568519Y-58079299D01*
X97582133Y-58058925D01*
X97591510Y-58036286D01*
X97596291Y-58012253D01*
X97596291Y-57987749D01*
X97591511Y-57963715D01*
X97582134Y-57941076D01*
X97568520Y-57920702D01*
X97551192Y-57903374D01*
X97544274Y-57897697D01*
X97544269Y-57897694D01*
X97471789Y-57838211D01*
X97412306Y-57765731D01*
X97368106Y-57683039D01*
X97340887Y-57593312D01*
X97331697Y-57500000D01*
X97340887Y-57406688D01*
X97368106Y-57316961D01*
X97412306Y-57234269D01*
X97456606Y-57180289D01*
X97470214Y-57159923D01*
X97479592Y-57137284D01*
X97484372Y-57113251D01*
X97484372Y-57088747D01*
X97479592Y-57064714D01*
X97470214Y-57042075D01*
X97456600Y-57021700D01*
X97439273Y-57004373D01*
X97418899Y-56990760D01*
X97396260Y-56981382D01*
X97359975Y-56976000D01*
X97334000Y-56976000D01*
X97334000Y-56024000D01*
X98286000Y-56024000D01*
X98286000Y-56976000D01*
X98286000Y-56976000D01*
G37*
G36*
X89480015Y-58486973D02*
G01*
X89583879Y-58518479D01*
X89611055Y-58533005D01*
X89679600Y-58569643D01*
X89763501Y-58638499D01*
X89832357Y-58722400D01*
X89868995Y-58790945D01*
X89883521Y-58818121D01*
X89915027Y-58921985D01*
X89925666Y-59030000D01*
X89915027Y-59138015D01*
X89883521Y-59241879D01*
X89883519Y-59241882D01*
X89832357Y-59337600D01*
X89763501Y-59421501D01*
X89679600Y-59490357D01*
X89611055Y-59526995D01*
X89583879Y-59541521D01*
X89480015Y-59573027D01*
X89399067Y-59581000D01*
X87820933Y-59581000D01*
X87739985Y-59573027D01*
X87636121Y-59541521D01*
X87608945Y-59526995D01*
X87540400Y-59490357D01*
X87456499Y-59421501D01*
X87387643Y-59337600D01*
X87336481Y-59241882D01*
X87336479Y-59241879D01*
X87304973Y-59138015D01*
X87294334Y-59030000D01*
X87304973Y-58921985D01*
X87336479Y-58818121D01*
X87351005Y-58790945D01*
X87387643Y-58722400D01*
X87456499Y-58638499D01*
X87540400Y-58569643D01*
X87608945Y-58533005D01*
X87636121Y-58518479D01*
X87739985Y-58486973D01*
X87820933Y-58479000D01*
X89399067Y-58479000D01*
X89480015Y-58486973D01*
X89480015Y-58486973D01*
G37*
G36*
X89500015Y-56666973D02*
G01*
X89603879Y-56698479D01*
X89631055Y-56713005D01*
X89699600Y-56749643D01*
X89783501Y-56818499D01*
X89852357Y-56902400D01*
X89888995Y-56970945D01*
X89903521Y-56998121D01*
X89935027Y-57101985D01*
X89945666Y-57210000D01*
X89935027Y-57318015D01*
X89903521Y-57421879D01*
X89903519Y-57421882D01*
X89852357Y-57517600D01*
X89783501Y-57601501D01*
X89699600Y-57670357D01*
X89631055Y-57706995D01*
X89603879Y-57721521D01*
X89500015Y-57753027D01*
X89419067Y-57761000D01*
X87840933Y-57761000D01*
X87759985Y-57753027D01*
X87656121Y-57721521D01*
X87628945Y-57706995D01*
X87560400Y-57670357D01*
X87476499Y-57601501D01*
X87407643Y-57517600D01*
X87356481Y-57421882D01*
X87356479Y-57421879D01*
X87324973Y-57318015D01*
X87314334Y-57210000D01*
X87324973Y-57101985D01*
X87356479Y-56998121D01*
X87371005Y-56970945D01*
X87407643Y-56902400D01*
X87476499Y-56818499D01*
X87560400Y-56749643D01*
X87628945Y-56713005D01*
X87656121Y-56698479D01*
X87759985Y-56666973D01*
X87840933Y-56659000D01*
X89419067Y-56659000D01*
X89500015Y-56666973D01*
X89500015Y-56666973D01*
G37*
G36*
X93288408Y-55349933D02*
G01*
X92536408Y-55349933D01*
X92536408Y-53547933D01*
X93288408Y-53547933D01*
X93288408Y-55349933D01*
X93288408Y-55349933D01*
G37*
G36*
X95828408Y-55349933D02*
G01*
X95076408Y-55349933D01*
X95076408Y-53547933D01*
X95828408Y-53547933D01*
X95828408Y-55349933D01*
X95828408Y-55349933D01*
G37*
G36*
X94558408Y-55349933D02*
G01*
X93806408Y-55349933D01*
X93806408Y-53547933D01*
X94558408Y-53547933D01*
X94558408Y-55349933D01*
X94558408Y-55349933D01*
G37*
G36*
X92018408Y-55349933D02*
G01*
X91266408Y-55349933D01*
X91266408Y-53547933D01*
X92018408Y-53547933D01*
X92018408Y-55349933D01*
X92018408Y-55349933D01*
G37*
G36*
X89460015Y-53966973D02*
G01*
X89563879Y-53998479D01*
X89591055Y-54013005D01*
X89659600Y-54049643D01*
X89743501Y-54118499D01*
X89812357Y-54202400D01*
X89848995Y-54270945D01*
X89863521Y-54298121D01*
X89895027Y-54401985D01*
X89905666Y-54510000D01*
X89895027Y-54618015D01*
X89863521Y-54721879D01*
X89863519Y-54721882D01*
X89812357Y-54817600D01*
X89743501Y-54901501D01*
X89659600Y-54970357D01*
X89591055Y-55006995D01*
X89563879Y-55021521D01*
X89460015Y-55053027D01*
X89379067Y-55061000D01*
X87800933Y-55061000D01*
X87719985Y-55053027D01*
X87616121Y-55021521D01*
X87588945Y-55006995D01*
X87520400Y-54970357D01*
X87436499Y-54901501D01*
X87367643Y-54817600D01*
X87316481Y-54721882D01*
X87316479Y-54721879D01*
X87284973Y-54618015D01*
X87274334Y-54510000D01*
X87284973Y-54401985D01*
X87316479Y-54298121D01*
X87331005Y-54270945D01*
X87367643Y-54202400D01*
X87436499Y-54118499D01*
X87520400Y-54049643D01*
X87588945Y-54013005D01*
X87616121Y-53998479D01*
X87719985Y-53966973D01*
X87800933Y-53959000D01*
X89379067Y-53959000D01*
X89460015Y-53966973D01*
X89460015Y-53966973D01*
G37*
M02*
